{
    "asset" : {
        "generator" : "Khronos glTF Blender I/O v1.6.16",
        "version" : "2.0"
    },
    "extensionsUsed" : [
        "KHR_materials_transmission"
    ],
    "scene" : 0,
    "scenes" : [
        {
            "name" : "Scene",
            "nodes" : [
                0,
                1,
                2
            ]
        }
    ],
    "nodes" : [
        {
            "mesh" : 0,
            "name" : "Terminal v7",
            "rotation" : [
                0,
                -0.7071068286895752,
                -0.7071068286895752,
                3.090862321641907e-08
            ],
            "scale" : [
                0.25,
                0.25,
                0.25
            ],
            "translation" : [
                15,
                0,
                -10
            ]
        },
        {
            "name" : "Cam\u00e9ra",
            "rotation" : [
                -0.8890688419342041,
                -0.013968784362077713,
                -0.033303990960121155,
                0.4563467502593994
            ],
            "translation" : [
                17.138294219970703,
                -62.55653381347656,
                -67.77876281738281
            ]
        },
        {
            "name" : "Soleil",
            "rotation" : [
                0.6148679256439209,
                0.23155811429023743,
                0.03280266001820564,
                0.7531548738479614
            ],
            "translation" : [
                5,
                -2,
                0
            ]
        }
    ],
    "materials" : [
        {
            "doubleSided" : true,
            "extensions" : {
                "KHR_materials_transmission" : {
                    "transmissionFactor" : 1
                }
            },
            "name" : "Material",
            "pbrMetallicRoughness" : {
                "baseColorFactor" : [
                    0.800000011920929,
                    0.800000011920929,
                    0.800000011920929,
                    1
                ],
                "metallicFactor" : 0,
                "roughnessFactor" : 0.4000000059604645
            }
        },
        {
            "doubleSided" : true,
            "name" : "Glass_-_Medium_Color",
            "pbrMetallicRoughness" : {
                "baseColorFactor" : [
                    0.06071940064430237,
                    0.06071940064430237,
                    0.06071940064430237,
                    1
                ],
                "metallicFactor" : 0,
                "roughnessFactor" : 0.5
            }
        },
        {
            "doubleSided" : true,
            "name" : "ABS_(White)",
            "pbrMetallicRoughness" : {
                "baseColorFactor" : [
                    0.8000000715255737,
                    0,
                    0.0007051234715618193,
                    1
                ],
                "metallicFactor" : 0,
                "roughnessFactor" : 0.5
            }
        },
        {
            "doubleSided" : true,
            "name" : "ABS_(White)_1",
            "pbrMetallicRoughness" : {
                "baseColorFactor" : [
                    0.8000000715255737,
                    0.13025346398353577,
                    0,
                    1
                ],
                "metallicFactor" : 0,
                "roughnessFactor" : 0.5
            }
        },
        {
            "doubleSided" : true,
            "name" : "ABS_(White)_2",
            "pbrMetallicRoughness" : {
                "baseColorFactor" : [
                    0,
                    0.8000000715255737,
                    0.0004905423265881836,
                    1
                ],
                "metallicFactor" : 0,
                "roughnessFactor" : 0.5
            }
        },
        {
            "doubleSided" : true,
            "name" : "ABS_(blanc)_(1)",
            "pbrMetallicRoughness" : {
                "baseColorFactor" : [
                    0,
                    0.5545575022697449,
                    0.8000000715255737,
                    1
                ],
                "metallicFactor" : 0,
                "roughnessFactor" : 0.5
            }
        },
        {
            "doubleSided" : true,
            "name" : "ABS_(blanc)_(1)_(1)",
            "pbrMetallicRoughness" : {
                "metallicFactor" : 0,
                "roughnessFactor" : 0.5
            }
        }
    ],
    "meshes" : [
        {
            "name" : "Terminal v7",
            "primitives" : [
                {
                    "attributes" : {
                        "POSITION" : 0,
                        "TEXCOORD_0" : 1
                    },
                    "indices" : 2,
                    "material" : 0
                },
                {
                    "attributes" : {
                        "POSITION" : 3,
                        "TEXCOORD_0" : 4
                    },
                    "indices" : 5,
                    "material" : 1
                },
                {
                    "attributes" : {
                        "POSITION" : 6,
                        "TEXCOORD_0" : 7
                    },
                    "indices" : 8,
                    "material" : 2
                },
                {
                    "attributes" : {
                        "POSITION" : 9,
                        "TEXCOORD_0" : 10
                    },
                    "indices" : 11,
                    "material" : 3
                },
                {
                    "attributes" : {
                        "POSITION" : 12,
                        "TEXCOORD_0" : 13
                    },
                    "indices" : 8,
                    "material" : 4
                },
                {
                    "attributes" : {
                        "POSITION" : 14,
                        "TEXCOORD_0" : 15
                    },
                    "indices" : 16,
                    "material" : 5
                },
                {
                    "attributes" : {
                        "POSITION" : 17,
                        "TEXCOORD_0" : 18
                    },
                    "indices" : 19,
                    "material" : 6
                }
            ]
        }
    ],
    "accessors" : [
        {
            "bufferView" : 0,
            "componentType" : 5126,
            "count" : 76,
            "max" : [
                125,
                75,
                0
            ],
            "min" : [
                0,
                0,
                -1
            ],
            "type" : "VEC3"
        },
        {
            "bufferView" : 1,
            "componentType" : 5126,
            "count" : 76,
            "type" : "VEC2"
        },
        {
            "bufferView" : 2,
            "componentType" : 5123,
            "count" : 180,
            "type" : "SCALAR"
        },
        {
            "bufferView" : 3,
            "componentType" : 5126,
            "count" : 76,
            "max" : [
                125,
                80,
                0
            ],
            "min" : [
                0,
                75,
                -1
            ],
            "type" : "VEC3"
        },
        {
            "bufferView" : 4,
            "componentType" : 5126,
            "count" : 76,
            "type" : "VEC2"
        },
        {
            "bufferView" : 5,
            "componentType" : 5123,
            "count" : 180,
            "type" : "SCALAR"
        },
        {
            "bufferView" : 6,
            "componentType" : 5126,
            "count" : 170,
            "max" : [
                121.25,
                78.74650573730469,
                0.5
            ],
            "min" : [
                118.75,
                76.25349426269531,
                0
            ],
            "type" : "VEC3"
        },
        {
            "bufferView" : 7,
            "componentType" : 5126,
            "count" : 170,
            "type" : "VEC2"
        },
        {
            "bufferView" : 8,
            "componentType" : 5123,
            "count" : 492,
            "type" : "SCALAR"
        },
        {
            "bufferView" : 9,
            "componentType" : 5126,
            "count" : 2422,
            "max" : [
                116.25,
                78.74650573730469,
                0.5
            ],
            "min" : [
                7.638027191162109,
                50.20704650878906,
                0
            ],
            "type" : "VEC3"
        },
        {
            "bufferView" : 10,
            "componentType" : 5126,
            "count" : 2422,
            "type" : "VEC2"
        },
        {
            "bufferView" : 11,
            "componentType" : 5123,
            "count" : 6396,
            "type" : "SCALAR"
        },
        {
            "bufferView" : 12,
            "componentType" : 5126,
            "count" : 170,
            "max" : [
                111.25,
                78.74650573730469,
                0.5
            ],
            "min" : [
                108.75,
                76.25349426269531,
                0
            ],
            "type" : "VEC3"
        },
        {
            "bufferView" : 13,
            "componentType" : 5126,
            "count" : 170,
            "type" : "VEC2"
        },
        {
            "bufferView" : 14,
            "componentType" : 5126,
            "count" : 3482,
            "max" : [
                41.39647674560547,
                51.81549835205078,
                0.10000000149011612
            ],
            "min" : [
                3.66619610786438,
                50.20704650878906,
                0
            ],
            "type" : "VEC3"
        },
        {
            "bufferView" : 15,
            "componentType" : 5126,
            "count" : 3482,
            "type" : "VEC2"
        },
        {
            "bufferView" : 16,
            "componentType" : 5123,
            "count" : 8916,
            "type" : "SCALAR"
        },
        {
            "bufferView" : 17,
            "componentType" : 5126,
            "count" : 43356,
            "max" : [
                64.03380584716797,
                72.58451080322266,
                0.10000000149011612
            ],
            "min" : [
                2.483098030090332,
                49.932395935058594,
                0
            ],
            "type" : "VEC3"
        },
        {
            "bufferView" : 18,
            "componentType" : 5126,
            "count" : 43356,
            "type" : "VEC2"
        },
        {
            "bufferView" : 19,
            "componentType" : 5123,
            "count" : 113688,
            "type" : "SCALAR"
        }
    ],
    "bufferViews" : [
        {
            "buffer" : 0,
            "byteLength" : 912,
            "byteOffset" : 0
        },
        {
            "buffer" : 0,
            "byteLength" : 608,
            "byteOffset" : 912
        },
        {
            "buffer" : 0,
            "byteLength" : 360,
            "byteOffset" : 1520
        },
        {
            "buffer" : 0,
            "byteLength" : 912,
            "byteOffset" : 1880
        },
        {
            "buffer" : 0,
            "byteLength" : 608,
            "byteOffset" : 2792
        },
        {
            "buffer" : 0,
            "byteLength" : 360,
            "byteOffset" : 3400
        },
        {
            "buffer" : 0,
            "byteLength" : 2040,
            "byteOffset" : 3760
        },
        {
            "buffer" : 0,
            "byteLength" : 1360,
            "byteOffset" : 5800
        },
        {
            "buffer" : 0,
            "byteLength" : 984,
            "byteOffset" : 7160
        },
        {
            "buffer" : 0,
            "byteLength" : 29064,
            "byteOffset" : 8144
        },
        {
            "buffer" : 0,
            "byteLength" : 19376,
            "byteOffset" : 37208
        },
        {
            "buffer" : 0,
            "byteLength" : 12792,
            "byteOffset" : 56584
        },
        {
            "buffer" : 0,
            "byteLength" : 2040,
            "byteOffset" : 69376
        },
        {
            "buffer" : 0,
            "byteLength" : 1360,
            "byteOffset" : 71416
        },
        {
            "buffer" : 0,
            "byteLength" : 41784,
            "byteOffset" : 72776
        },
        {
            "buffer" : 0,
            "byteLength" : 27856,
            "byteOffset" : 114560
        },
        {
            "buffer" : 0,
            "byteLength" : 17832,
            "byteOffset" : 142416
        },
        {
            "buffer" : 0,
            "byteLength" : 520272,
            "byteOffset" : 160248
        },
        {
            "buffer" : 0,
            "byteLength" : 346848,
            "byteOffset" : 680520
        },
        {
            "buffer" : 0,
            "byteLength" : 227376,
            "byteOffset" : 1027368
        }
    ],
    "buffers" : [
        {
            "byteLength" : 1254744,
            "uri" : "data:application/octet-stream;base64,"
        }
    ]
}
