<svg version="1.2" xmlns="http://www.w3.org/2000/svg" viewBox="0 0 645 387" width="645" height="387">
	<title>AERO20200312164918-removebg-preview</title>
	<style>
		.s0 { fill: #fcb33a } 
		.s1 { fill: #f36c34 } 
		.s2 { fill: #828387 } 
		.s3 { fill: #ed1b24 } 
		.s4 { fill: #71c276 } 
		.s5 { fill: #76d0f5 } 
	</style>
	<g id="Background">
		<path id="Path 0" class="s0" d="m345.5 6.5c42.9 0 60.7 0.1 39.5 0.2-21.2 0.2-56.3 0.2-78 0-21.7-0.1-4.4-0.2 38.5-0.2zm-149.3 199.5c0.4 0 1.6 1.2 2.6 2.8 0.9 1.5 3.7 5.4 6.1 8.7 2.5 3.3 5.7 7.7 7.3 9.7 1.5 2 2.8 4.2 2.8 4.7 0 0.6-1.5 2.6-3.3 4.4-1.9 1.7-3.7 4.2-4 5.5-0.4 1.2-2 3.3-3.7 4.7-1.6 1.4-3 3.1-3 3.8 0 0.6-1.3 2.4-3 4-1.6 1.5-3 3.3-3 4-0.1 0.6-1.7 3.5-3.8 6.2-2 2.8-4.6 5.7-5.7 6.6-1.1 0.9-2.3 2.8-2.7 4.2-0.5 1.5-1.7 3.1-2.8 3.7-1.1 0.6-2 1.6-2 2.3 0.1 0.6-0.9 2.1-2.1 3.2-1.1 1.1-2.7 3.5-3.5 5.3-0.8 1.7-2.1 3.5-3 4-0.8 0.4-2.5 2.7-3.7 5.1-1.2 2.5-3.2 5.1-4.4 5.8-1.3 0.7-2.3 2-2.3 2.8 0 0.8-1.6 3.4-3.6 5.8-1.9 2.3-4.2 5-5 6-0.8 0.9-1.4 2-1.4 2.5 0 0.4-1.5 2.6-3.5 5-1.9 2.3-3.5 4.6-3.5 5.2 0 0.6-1.1 1.7-2.5 2.5-1.4 0.8-2.5 2.2-2.5 3 0 0.8-1 2.5-2.3 3.8-1.2 1.2-4.2 5.2-6.5 9-2.3 3.7-4 7-3.8 7.5 0.2 0.4 10.6 0.8 23 1 14.3 0.1 22.8-0.2 23.1-0.8q0.5-1 2.5 0c1.8 0.9 2 2 2 10 0 4.9-0.4 10.1-2 14h-69.5c-38.2 0-69.6-0.3-69.8-0.7-0.2-0.5-0.1-5.7 0.8-22.5l23 0.1c18.3 0.1 23.5-0.2 25.5-1.4 1.4-0.8 4.2-3.8 6.3-6.7 2-2.9 5.2-7.5 7.1-10.3 1.8-2.7 4.9-6.9 6.7-9.1 1.9-2.3 5.5-7.3 8.1-11 2.6-3.8 7.3-10.3 10.3-14.4 3-4.1 8.1-11.1 11.2-15.5 3.1-4.4 6-8.1 6.5-8.2 0.4-0.2 2.8-3.3 5.3-7 2.5-3.8 6.3-9.3 8.5-12.3 2.3-3 4.7-5.9 5.4-6.5 0.7-0.6 2-2.5 2.9-4.2 1-1.8 2.1-3.3 2.7-3.3 0.6 0 2-2.1 3.3-4.7 1.2-2.5 2.8-4.8 3.5-5 0.6-0.1 1.2-1 1.2-1.8 0-0.8 1-2.3 2.3-3.3 1.2-0.9 3.1-3.5 4.2-5.6 1.1-2.1 3-4.7 4.3-5.7 1.2-1.1 2.2-2.2 2.2-2.6-0.1-0.5 1.3-2.6 2.9-4.8 1.7-2.2 4-5.2 5.3-6.7 1.2-1.6 2.5-2.8 3-2.8z"/>
		<path id="Path 1" class="s1" d="m345.7 6.7c62.3 0.2 78.9 0.5 79.2 1.5q0.5 1.3-1.2 0.5c-0.9-0.4-36.6-0.7-79.2-0.7-42.6 0-77.5-0.3-77.5-0.8 0-0.4 35.4-0.6 78.7-0.5zm-44.2 208.3c0.3 0 2.5 2.1 5 4.8 2.5 2.6 4.5 5.1 4.5 5.7-0.1 0.6 0.7 1.7 1.6 2.5 0.9 0.8 5.4 6.2 9.9 12 4.5 5.8 8.6 11.4 9.2 12.5 0.6 1.1 1.7 2.7 2.4 3.5 0.8 0.8 2.2 2.7 3.2 4.3 1.7 2.7 1.7 2.7-0.5 2.2-1.3-0.2-4.7-0.9-7.5-1.5-2.9-0.5-9.9-1-15.5-1-6.6 0-12.3 0.6-15.8 1.6-3 0.9-8.4 3-12 4.8-3.5 1.7-8.9 5.4-11.9 8.1-2.9 2.8-7.2 7.8-13.6 17.5l-2.3-2.3c-1.3-1.2-3.6-4.2-5-6.7-1.4-2.5-3.9-6.1-5.4-8-1.6-1.9-3.5-4.2-4.3-5-0.8-0.8-1.4-1.9-1.4-2.5 0-0.6-1.3-2.4-2.9-4-1.5-1.6-4.1-5.2-5.7-8-1.6-2.7-3.5-5.3-4.2-5.7-0.7-0.5-2.8-2.9-4.5-5.5-1.8-2.7-4.1-6.3-5-8-1.8-3.3-1.8-3.3 0.5-2.7 1.2 0.4 2.7 1 3.2 1.4 0.6 0.4 4.6 2 9 3.5 4.4 1.5 9.6 3.6 11.5 4.6 1.9 1.1 4.1 1.9 4.8 1.9 0.6 0 3.6 1.1 6.5 2.4 2.8 1.2 7.7 3.3 10.7 4.4 3 1.2 6.4 2.2 7.5 2.2 1.4 0 3.5-2.1 6.5-6.6 2.5-3.6 5.1-7.8 5.9-9.2 0.8-1.5 1.8-2.8 2.3-2.9 0.4-0.2 0.8-0.8 0.7-1.3-0.1-0.6 2.7-5.1 6-10 3.4-5 6.4-9 6.6-9z"/>
		<path id="Path 2" fill-rule="evenodd" class="s2" d="m27.5 5.1c2.2 0 5.5 0.5 7.4 1.2 2.3 0.8 3.5 1.9 3.8 3.5 0.2 1.4-0.3 2.4-1.5 2.7-0.9 0.3-3.7 0.3-6.2 0-2.5-0.4-6.5-0.2-9 0.5-3 0.8-5.9 2.6-8.6 5.4-3.2 3.3-4.3 5.3-5.3 10.1-1.1 5.5-1 6.4 0.8 10 1.6 3.2 2.8 4.2 5.8 4.9 2.1 0.6 5.2 0.9 6.8 0.7 1.6-0.1 3.5-0.8 4.2-1.4 0.7-0.7 1.8-4.1 2.5-7.7 1.2-6.2 1.4-6.5 4.1-6.5 2.8 0 2.8 0.1 2.4 5-0.2 2.8-1.2 7-2.1 9.5-1 2.5-2.1 4.9-2.6 5.3-0.4 0.5-5.4 0.8-11.1 0.8-8.5 0-10.8-0.3-12.8-1.8-1.3-1-2.3-2.1-2.2-2.5 0.1-0.5-0.8-2.1-1.9-3.8-1.1-1.7-2-4.6-2-6.8 0-2 1-6.6 2.3-10.1 1.7-5.1 3.3-7.5 7.5-11.3 2.8-2.6 5.8-4.6 6.5-4.3 0.6 0.3 2.6-0.4 4.2-1.5 1.8-1.2 4.6-2 7-1.9zm74.2-0.1c1.8 0 5.4 1.2 8 2.8 2.6 1.5 5.5 4 6.5 5.7 1.1 1.8 1.8 5 1.8 8 0 2.8-0.6 7.3-1.5 10-0.8 2.8-2.7 6.8-4.4 9-1.6 2.2-4.7 5-7 6.3-3.3 1.8-5.6 2.2-12.4 2.2-6.3 0-8.7-0.4-10.3-1.8-1.1-0.9-2.8-3.4-3.7-5.5-1-2-1.7-5.2-1.7-7 0.1-1.7 0.7-5.2 1.4-7.7 0.6-2.5 2.1-6.1 3.2-8 1-1.9 3.7-5.2 5.9-7.3 2.2-2.1 4.6-3.5 5.2-3.2 0.7 0.3 2.3-0.4 3.5-1.5 1.2-1.2 3.5-2 5.5-2zm-13.5 16.5c-2 3.2-2.5 5.4-2.6 10.8-0.1 6.4 0.1 7 2.9 9.4 2.3 2 3.8 2.4 6.5 2.1 1.9-0.3 5-1.6 6.8-2.9 1.9-1.3 4.3-4.2 5.5-6.4 1.5-2.9 2.1-5.9 2.2-10.8 0-6.2-0.3-7.1-2.5-8.8-1.6-1.3-4-2-6.5-1.9-2.5 0-5.1 0.9-6.9 2.3-1.6 1.2-4.1 4-5.4 6.2zm-29.9-15.5c5.3-0.1 7.6 0.3 8.7 1.5 0.8 0.9 2 1.6 2.5 1.5 0.5 0 1.9 0.9 3 2 1.7 1.8 1.9 2.9 1.3 6.8-0.4 2.8-1.7 5.7-3 7.1-1.3 1.3-3.4 2.8-4.8 3.4-1.4 0.5-3 0.9-3.5 0.8-0.5-0.1-1.3 0.4-1.7 1.1-0.3 0.7 0.5 3.6 1.9 6.3 1.4 2.8 3.1 5.7 3.8 6.5 0.7 0.8 1.2 2.3 1.1 3.2-0.1 1-1.2 1.8-2.6 2.1-1.4 0.2-3-0.1-3.5-0.8-0.5-0.6-2.6-4.1-4.5-7.8-1.9-3.7-4-6.7-4.5-6.7-0.5 0-1.3 2.5-1.8 5.5-0.4 3-1.2 6.4-1.7 7.5-0.6 1.2-2 2-3.5 2-1.4 0-2.6-0.6-2.8-1.2-0.2-0.7 0.1-3.5 0.6-6.3 0.6-2.7 1.6-6.5 2.3-8.3 0.8-1.7 1.2-4.1 0.9-5.2-0.3-1.1 0.1-3.5 0.9-5.2 0.7-1.8 1.3-5.1 1.2-7.4 0-2.2 0.5-5 1.2-6.2 1.1-1.9 2.1-2.2 8.5-2.2zm-4.1 13.8c-0.2 4.7 0 5.2 2 5.7 1.3 0.2 3.5-0.1 5-0.8 1.6-0.7 3.5-2.9 4.5-5.1 1.8-3.7 1.8-3.9-0.2-5.2-1.1-0.8-3.6-1.4-5.5-1.4-1.9 0-4 0.4-4.5 0.8-0.5 0.4-1.1 3.1-1.3 6zm78.4-13.8c0.8 0 1.6 0.7 1.9 1.5 0.3 0.8 0 2.7-0.5 4.3-0.6 1.5-0.8 3.5-0.5 4.5 0.3 0.9 0.1 3.2-0.4 5-0.6 1.7-1.3 4.8-1.6 6.7-0.3 1.9-0.9 5.5-1.2 8-0.5 3.9-0.2 4.8 1.8 6.8 1.6 1.4 3.6 2.2 5.9 2.2 2 0.1 4.9-0.9 6.9-2.2 2.1-1.5 4-4 5.2-7 1.1-2.7 1.7-4.9 1.4-5-0.2-0.2 0.5-4.9 1.5-10.5 1.1-5.7 2.4-11.2 3-12.3 0.6-1.1 1.9-2 3-2 1.1 0 2.2 0.5 2.5 1 0.3 0.6 0 3.8-0.6 7.3-0.6 3.4-1.8 7.8-2.6 9.7-0.8 1.9-1.2 4.4-0.9 5.5 0.4 1.1 0.1 3.3-0.6 5-0.6 1.7-1.3 3.5-1.3 4-0.1 0.6-0.7 2.1-1.4 3.5-0.6 1.4-2.6 3.5-4.4 4.6-2.5 1.7-5 2.2-11.7 2.5-4.7 0.1-9.2-0.2-10.1-0.7-0.8-0.5-2.3-2-3.2-3.4-1-1.4-1.7-4.3-1.7-6.5 0-2.2 0.6-4.9 1.3-6 0.8-1.1 1.4-4.1 1.3-6.6-0.1-2.5 0.4-5.2 1-6 0.7-0.8 1.1-3.3 1-5.5-0.1-2.9 0.5-4.9 1.8-6.3 1-1.2 2.5-2.1 3.2-2.1zm42.3 0h7.1c4 0 7 0.4 7 1 0 0.6 1 1.2 2.2 1.5 1.3 0.3 3.2 1.4 4.3 2.6 1.4 1.5 2 3.4 1.9 6.3-0.1 2.7-1.1 5.6-3 8.4-1.6 2.4-4.5 5-6.4 5.9-1.9 0.9-5.3 1.8-7.5 2.1-2.2 0.2-4.6 1-5.3 1.6-0.7 0.6-1.5 3.4-1.8 6.1-0.4 4-1 5.2-2.9 6.3-1.4 0.6-3.2 1-4 0.7-0.8-0.3-1.3-0.8-1-1.2 0.2-0.5 0.9-3.7 1.5-7.3 0.6-3.6 1.6-7.1 2.1-7.7 0.5-0.7 0.7-2.3 0.5-3.5-0.3-1.3 0-3.2 0.6-4.3 0.6-1.1 1.2-4 1.4-6.5 0.1-2.5 0.9-6.2 1.8-8.2zm2 15c0.2 4.8 0.6 5.6 2.9 6.7 2.4 1.1 2.9 1 5.6-2.2 1.7-1.9 3.6-4.1 4.3-5 0.7-0.8 1.2-2 1.2-2.5 0-0.6-0.8-2-1.7-3.1-1.2-1.4-3-2-5.9-2-2.3 0-4.7 0.6-5.4 1.3-0.7 0.7-1.1 3.5-1 6.8zm50.5-14.5v5.9l-7.5 0.4c-4.1 0.2-7.7 0.5-8 0.8-0.2 0.3-0.6 3-1 11.4h4.5c2.5 0 5.2 0.2 6 0.5 0.9 0.2 1.5 1.1 1.5 2 0 1.1-1.4 1.5-6.5 1.5-5.8 0-6.6 0.2-7.4 2.2-0.5 1.2-1.3 4-1.7 6.3-0.4 2.1-0.8 4.4-0.8 5 0 0.5 3.3 1.2 7.4 1.5 6.7 0.4 7.5 0.7 7.5 2.5 0 1.8-0.7 2-10.7 2.2-8.8 0.2-10.9 0-11.3-1.2-0.2-0.9 0.2-5.3 1.1-9.8 0.8-4.5 2.2-10.4 3-13 0.8-2.6 1.2-5.2 0.9-5.7-0.2-0.6 0-2.7 0.7-4.8 0.6-2.1 1.5-4.8 2-6 0.8-2.2 1.3-2.3 20.3-1.7zm380.7 224.7c0.5 0.7 0.5 7.9-0.7 30.6l3 0.7c1.7 0.4 8.9 0.5 16 0.3 7.2-0.3 13.6-0.4 14.3-0.2 0.8 0.2 1.2 2.4 1.2 12.4l-15.3 0.2c-11.9 0.2-15.8 0.6-17.1 1.8-1.6 1.3-1.7 4.1-1.3 37 0.3 19.5 0.7 36.6 1 38 0.2 1.3 1.3 3.7 2.3 5.3 1.1 1.6 2.9 3.5 4.2 4.2 1.2 0.8 4.1 1.7 6.5 2.1 2.3 0.3 6.9 0 10.2-0.7 3.3-0.6 6.9-1.8 8-2.5 1.1-0.7 2.6-1.1 3.3-0.9 0.8 0.3 1.2 2.8 1.2 8 0 6.2-0.3 7.6-1.7 8.1-1 0.4-2.1 0.7-2.4 0.8-0.4 0-1 0.4-1.5 0.8-0.4 0.4-2 0.8-3.5 0.8-1.6 0-4.1 0.7-5.6 1.7-1.9 1.3-4.7 1.8-10 1.8-5.4 0-7.6-0.4-8.3-1.5-0.5-0.9-1.9-1.6-3.2-1.6-1.2-0.1-3.6-0.8-5.3-1.7-1.6-0.9-4.2-2.8-5.7-4.4-1.5-1.6-3.6-5.3-4.8-8.3-1.9-5.3-2-7.7-2-45 0-21.8-0.3-40.1-0.7-40.8-0.4-0.7-2.3-1.7-4.3-2.2-1.9-0.6-6.1-1.1-15-1l1.5-3c0.9-1.7 2.3-3.6 3.3-4.3 1-0.7 2.8-2.8 4-4.7 1.1-2 2.9-4.4 3.9-5.5 1-1.2 5.4-6.5 9.8-12 4.4-5.5 9.3-11.3 10.9-12.8 2.3-2.1 3.2-2.4 3.8-1.5zm-295.2 28.8c5.8 0 14.1 0.6 18.5 1.5 4.4 0.9 8.6 2.1 9.3 2.8 0.9 0.7 1.3 3.8 1.3 9.2-0.1 6.8-0.3 8-1.8 8.1-1 0.1-2.7-0.2-3.8-0.6-1.1-0.4-3.3-1.4-5-2.1-1.6-0.7-5-1.5-7.5-1.7-2.4-0.3-5.4-0.5-6.5-0.5-1.1 0-4.6 0.2-7.8 0.4-3.2 0.2-6 0.7-6.3 1.1-0.2 0.4-0.9 0.7-1.6 0.7-0.7 0-4.2 1.9-7.8 4.1-3.5 2.3-7.9 6.1-9.6 8.3-1.7 2.3-3.8 5.5-4.6 7.2-0.8 1.6-2.1 4.3-2.9 5.9-0.9 1.9-1.4 6.8-1.3 15.5 0 11.8 0.2 12.9 3 19.1 1.7 3.5 5 8.7 7.5 11.4 2.4 2.7 6.7 6.3 9.4 8.1 3.8 2.4 7 3.5 13 4.4 6.2 1 9.6 1 15 0.1 3.9-0.7 7.9-1.2 9-1.2 1.1 0 2.3-0.4 2.5-0.9 0.3-0.6 2.3-1.4 4.5-1.9 2.2-0.5 4.4-0.7 4.8-0.5 0.4 0.3 0.7 3 0.7 6.2 0 3.2-0.6 6.8-1.3 8.1-0.6 1.2-3 2.9-5.2 3.8-2.2 0.8-5.8 1.6-8.1 1.7-2.2 0.1-4.9 0.8-5.9 1.7-1.3 1-4.2 1.4-10.9 1.4-7 0-9.6-0.4-11.6-1.8-1.3-0.9-3.4-1.6-4.6-1.4-1.1 0.1-3.1-0.2-4.5-0.8-1.3-0.6-4.6-2.2-7.3-3.5-2.7-1.4-7.4-4.7-10.4-7.4-3.1-2.8-7.3-7.7-9.4-11-2.1-3.4-3.8-6.8-3.8-7.8 0-1-0.4-1.7-1-1.7-0.5 0-1.6-2.4-2.4-5.3-0.8-2.9-2-7.6-2.5-10.5-0.6-2.9-1.1-8.1-1-11.5 0-3.4 0.4-8.3 1-10.7 0.5-2.5 1.7-7 2.6-10 1-3.1 3.6-8.5 5.9-12 2.3-3.6 6.6-8.8 9.6-11.5 3-2.8 8.1-6.4 11.4-8 3.2-1.6 8.4-3.7 11.4-4.7 3.8-1.2 8.9-1.8 16-1.8zm90.3 0c8.1 0 10.9 0.4 17 2.6 4 1.4 8.6 3.5 10.2 4.6 1.7 1.1 5.2 4.1 7.9 6.7 2.6 2.5 5.7 5.9 6.9 7.6 1.2 1.6 3 5.2 4 8 1.1 2.7 1.9 6.5 1.8 8.5 0 1.9 0.3 3.9 0.8 4.5 0.5 0.5 1.1 3.9 1.6 14l-82 1-1 5.8c-0.7 4.4-0.7 5.9 0.3 6.5 0.6 0.3 1.3 2 1.5 3.7 0.2 1.6 1 4.3 1.8 6 0.7 1.6 2.6 5 4.1 7.5 1.4 2.4 4.8 6.2 7.5 8.4 2.6 2.2 7.1 4.8 9.8 5.8 2.8 1 7.5 2.1 10.5 2.4 3.1 0.3 8.9 0.1 13-0.5 4.2-0.6 8.9-1.3 10.5-1.7 1.7-0.3 3.5-1 4-1.5 0.6-0.5 1.4-0.6 1.8-0.2 0.4 0.4 1.3 0.2 2-0.4 0.7-0.7 3.7-2.5 6.7-4.2 3.2-1.7 5.9-2.6 6.5-2.1 0.6 0.5 0.8 3.8 0 15.3l-6.5 3.3c-3.5 1.8-8 3.6-10 4-1.9 0.3-4.4 1.2-5.5 1.9-1.1 0.7-2.6 1-3.5 0.8-0.8-0.3-3.3 0.3-5.5 1.3-2.8 1.3-6.3 1.8-12.1 1.8-5.1 0-8.6-0.4-9.5-1.2-0.7-0.7-2.9-1.4-4.9-1.6-1.9-0.2-4.4-0.8-5.5-1.4-1.1-0.6-3.5-1.7-5.5-2.5-1.9-0.8-5.9-3.5-9-6-3-2.4-7.4-7.1-9.8-10.4-2.4-3.2-5.4-8.5-6.8-11.8-1.3-3.4-2.4-7.4-2.4-9 0.1-1.7-0.4-3.5-1-4-0.6-0.6-1.1-6.3-1.2-13-0.2-8.1 0.1-12.8 1-14.5 0.7-1.4 1.3-3.9 1.2-5.5 0-1.7 1.7-6.7 3.9-11 3.1-6.4 5.5-9.5 11.4-15 4.1-3.9 9.5-8.1 11.9-9.3 2.4-1.2 6.1-2.9 8.3-3.7 2.4-0.8 8-1.4 13.8-1.5zm-21 25.4c-3.9 3.9-7.2 7.9-7.2 9.1-0.1 1.1-0.8 2.6-1.6 3.5-1 0.9-1.3 2.5-1 4.2l0.5 2.8h61.5c-1.2-11-2.2-13.9-3.7-15.8-1.3-1.5-4.2-4.7-6.5-7-2.4-2.3-4.8-4.2-5.5-4.2-0.7 0-1.8-0.5-2.4-1.3-0.8-0.8-4.3-1.3-11-1.3-6.7 0-10.8 0.4-12.9 1.4-1.6 0.8-6.2 4.7-10.2 8.6z"/>
		<path id="Path 3" class="s3" d="m344.9 8c42.7 0 77.9 0.3 78.3 0.7 0.4 0.5 0.1 1.9-0.6 3.3-0.8 1.4-2.4 3.6-3.7 5-1.3 1.4-4.2 5.1-6.4 8.3-2.2 3.2-4.4 5.8-5 5.8-0.5 0-32.3-0.1-70.5-0.1-53.8 0-69.7-0.3-70.2-1.3-0.4-0.6-0.9-5.5-1-10.8-0.1-5.3 0.2-9.9 0.7-10.2 0.5-0.4 35.7-0.7 78.4-0.7z"/>
		<path id="Path 4" class="s4" d="m310.1 31l47.7 0.2c41.4 0.3 47.7 0.5 48 1.8 0.2 0.8-3.2 6.2-7.4 12-4.3 5.8-12.3 16.6-17.8 24-5.4 7.4-13.6 18.4-18.1 24.5-4.5 6.1-12.8 17.3-18.5 25-5.7 7.7-11.5 15.6-12.9 17.5-1.4 1.9-2.8 3.7-3.1 4-0.3 0.3-2.8 3.7-5.5 7.5-2.8 3.8-5.7 7.7-6.5 8.7-0.8 0.9-3.3 4.2-5.5 7.5-2.2 3.2-4.4 6.3-5 6.9-0.5 0.5-4.4 5.6-8.5 11.2-4.1 5.6-8.2 10.2-9 10.2-0.8 0-7-7.4-13.6-16.3-6.7-8.9-17.2-22.8-34.4-45.7l1.7-2.7c1-1.6 7.8-11.4 15.2-21.8 7.4-10.4 14.8-20.9 16.5-23.2 1.7-2.3 5.1-7 7.6-10.4 2.5-3.4 6.3-8.8 8.5-11.9 2.2-3.2 7.7-11 12.3-17.4z"/>
		<path id="Path 5" class="s5" d="m58.5 5.3c4.4 0 6.4 0.2 4.5 0.4-1.9 0.2-5.5 0.2-8 0-2.5-0.2-0.9-0.4 3.5-0.4zm123.5 0c4.1 0 5.7 0.2 3.5 0.4-2.2 0.2-5.6 0.2-7.5 0-1.9-0.2-0.1-0.4 4-0.4zm35 0.1c5.8 0 8 0.1 5 0.3-3 0.2-7.8 0.2-10.5 0-2.8-0.2-0.3-0.3 5.5-0.3zm128.5 0.1c44 0 62.2 0.1 40.5 0.2-21.7 0.2-57.7 0.2-80 0-22.3-0.1-4.5-0.2 39.5-0.2zm-58.5 25.9c10.7 0 15 0.2 9.5 0.3-5.5 0.2-14.3 0.2-19.5 0-5.2-0.1-0.7-0.3 10-0.3zm-143.7 35.6c24.3 0 45.7 0.3 47.6 0.7 2.9 0.7 5.9 4.1 24 28.2 11.3 15 21.7 28.9 23 31 1.3 2 5 7 8.1 11.1 3 4.1 13.4 17.8 23 30.5 9.5 12.6 17.9 23.4 18.6 24 0.6 0.6 3.1 3.7 5.5 7 2.4 3.3 5.3 8 8.6 15l-6.3 9.3c-3.5 5-6.4 9.6-6.4 10.2 0 0.6-0.4 1.1-0.8 1.3-0.5 0.1-1.5 1.4-2.3 2.9-0.8 1.4-3.4 5.6-5.9 9.2-3 4.5-5.1 6.6-6.5 6.6-1.1 0-4.5-1-7.5-2.2-3-1.2-7.9-3.2-10.8-4.5-2.8-1.3-5.7-2.3-6.2-2.3-0.6 0-4.4-1.6-8.5-3.5-4.1-1.9-8.1-3.5-8.8-3.5-0.6 0-2.8-0.8-4.7-1.8-1.9-0.9-5.3-2.3-7.5-3-2.7-0.9-5-2.8-7.1-5.5-1.6-2.3-5.2-7.3-8-11.1-2.7-3.7-6.3-8.5-8-10.5-1.7-2-5.1-6.5-7.5-10.1-2.4-3.6-5-7.2-5.7-8-0.7-0.8-2.7-3.5-4.6-6-1.8-2.5-7.1-9.7-11.7-16-4.7-6.3-11.4-15.6-14.9-20.5-3.5-4.9-8.9-12.4-11.9-16.5-3-4.1-8.5-11.6-12.1-16.5-3.7-4.9-11.8-16-18-24.5-6.2-8.5-11.4-16.4-11.5-17.5-0.1-1.1-0.1-2.3 0.1-2.7 0.3-0.4 20.3-0.7 44.7-0.8zm465.4 182.5c0.2 2.2 0.2 6 0 8.5-0.2 2.5-0.4 0.7-0.4-4 0-4.7 0.2-6.7 0.4-4.5zm-266 19c0.2 1.6 0.2 4.8 0 7-0.2 2.2-0.4 0.9-0.4-3 0-3.9 0.2-5.6 0.4-4zm266 25.5c0.2 9.1 0.2 24.4 0 34-0.1 9.6-0.3 2.2-0.3-16.5 0-18.7 0.2-26.6 0.3-17.5z"/>
		<path id="Path 6" fill-rule="evenodd" class="s2" d="m83.3 127.1c3.1-0.1 8.1 0.4 11 1 2.8 0.6 6.3 1.7 7.7 2.4 1.4 0.6 5.6 2.7 9.4 4.6 4.6 2.3 8.7 5.4 12.5 9.4 3.1 3.3 6.4 7.6 7.3 9.5 0.9 1.9 1.7 3.8 1.7 4.3 0.1 0.4 0.8 2.1 1.6 3.7 0.8 1.7 1.3 3.4 1 4-0.3 0.6 0.2 2.4 1 4 1.1 2.2 1.4 5 1 10.8-0.3 4.2-0.8 7.9-1.1 8.2-0.3 0.3-20.1 0.6-44 0.7-24 0.1-43.9 0.6-44.3 1-0.5 0.5-0.5 4.3 0 8.6 0.5 4.2 1.8 10.3 2.9 13.5 1.1 3.1 3.5 7.9 5.3 10.6 1.8 2.8 5.2 6.6 7.7 8.6 2.5 2 7.2 4.7 10.5 6 5.3 2.2 7.6 2.5 18.5 2.5 10.4 0 13.7-0.4 19.5-2.3 3.8-1.3 9.7-3.6 13-5.2 3.3-1.5 6.8-3.1 7.8-3.4 1.2-0.4 1.8 0 2.2 1.7 0.3 1.2 0.5 4.6 0.5 7.5 0 3.6-0.5 5.7-1.8 7-0.9 0.9-4.9 3-8.7 4.6-3.8 1.5-8.1 3.4-9.5 4.1-1.4 0.7-3.1 1.1-3.8 0.9-0.6-0.2-2.2 0.3-3.5 1.2-1.4 1-3.2 1.3-5 1-1.5-0.3-2.9-0.3-3.1 0.2-0.2 0.4-3.5 1.1-7.2 1.5-4.3 0.5-9.5 0.4-13.9-0.3-3.8-0.6-8.3-1.7-10-2.3-1.7-0.6-3.7-1.3-4.5-1.4-0.8-0.1-1.7-0.7-2-1.1-0.3-0.5-1.6-1.2-3-1.5-1.4-0.3-5.2-2.6-8.5-5.1-3.3-2.4-8.1-7.3-10.7-10.8-2.5-3.4-5.8-8.5-7.2-11.3-1.4-2.7-3.4-8.6-4.5-13-1.4-5.6-2.1-11.5-2.1-20-0.1-9.2 0.4-13.9 2-20 1.1-4.4 3.8-11.1 5.8-14.9 2.2-4.2 6.5-9.7 10.8-14 4.4-4.5 9.2-8.2 13-10 3.2-1.5 6.8-3.2 7.9-3.7 1.1-0.4 4-1.2 6.5-1.7 2.5-0.6 7.1-1 10.2-1.1zm-8.2 17.9c0 0.6-0.9 1-2 1-1.1 0-3 0.6-4.2 1.3-1.1 0.6-5 4-8.5 7.5-3.4 3.4-6.3 6.9-6.3 7.7 0 0.8-0.5 1.5-1 1.5-0.5 0-1 1-1 2.3 0 1.2-0.4 2.6-1 3.2-0.6 0.6-1 2.4-0.8 4l0.3 3h67c-0.4-3.9-0.7-6.4-0.9-8-0.1-1.6-0.7-3.9-1.1-5-0.5-1.1-2.9-4.7-5.4-7.9-3.5-4.5-5.9-6.6-9.9-8.3-2.8-1.3-5.4-2.7-5.7-3.3-0.3-0.6-0.8-0.9-1.3-0.8-0.4 0.1-4.6 0.3-9.5 0.5-4.9 0.2-8.7 0.7-8.7 1.3zm448 115.4c6.4 0.2 11.3 1 15 2.4 3 1.2 8 4.3 11 7 3 2.7 6.5 6.9 7.7 9.3 1.2 2.4 2.7 6.2 3.2 8.4 0.7 2.5 1.1 19.7 1.1 45 0 22.6-0.2 42-0.5 43.3-0.5 2.1-1 2.2-8.5 2.2-4.4 0-8.2-0.3-8.4-0.7-0.3-0.5-0.5-18.8-0.6-40.8-0.1-38.9-0.2-40.1-2.3-44.4-1.2-2.5-4.2-6.2-6.7-8.3-2.5-2.1-5.2-3.8-6-3.8-0.8 0-2.4-0.6-3.5-1.5-1.3-0.9-4.4-1.4-8.5-1.5-3.7 0-7 0.5-7.5 1-0.6 0.6-1.7 1.1-2.6 1.3-0.9 0.1-3.8 1.6-6.5 3.4-2.7 1.7-6.7 5.3-9 8-2.2 2.6-4.4 5.7-4.8 6.8-0.4 1.1-0.7 18.9-0.7 39.5 0.1 23-0.2 38.1-0.9 39-0.6 1-3.1 1.6-7.7 1.9-4.9 0.3-7.2 0-8.4-1-1.4-1.3-1.5-7.1-1.1-56.4 0.2-30.2 0.8-55.8 1.3-56.8 0.7-1.4 2.3-1.7 15.4-1.7l0.7 4c0.5 2.2 0.6 5.7 0.3 7.7-0.3 2.1-0.1 4.5 0.4 5.3 0.8 1.2 2.3 0.2 8.3-5.6 4-3.9 8.4-7.7 9.8-8.5 1.4-0.8 4.3-2.2 6.5-3.2 3.2-1.3 6-1.6 13.5-1.3z"/>
		<path id="Path 7" class="s5" d="m466.7 288.5c0.2 12.1 0.2 32.4 0 45-0.1 12.6-0.2 2.8-0.2-22 0-24.8 0.1-35.1 0.2-23zm-32 13.5c0.3 0.8 0.2 2.1-0.1 2.8-0.5 0.9-7.5 1.1-31.3 1-19.4-0.2-30.7-0.7-30.8-1.3-0.1-0.6 0-0.7 0.2-0.2 0.2 0.4 14 0.7 61.3 0.7l0.1-2.2c0-1.5 0.2-1.7 0.6-0.8zm108 18c0.2 10.2 0.2 27.1 0 37.5-0.1 10.4-0.2 2.1-0.2-18.5 0-20.6 0.1-29.2 0.2-19z"/>
	</g>
</svg>