<?xml version="1.0" encoding="UTF-8"?>
<svg width="91px" height="91px" viewBox="0 0 91 91" version="1.1" xmlns="http://www.w3.org/2000/svg" xmlns:xlink="http://www.w3.org/1999/xlink">
    <!-- Generator: Sketch 41.1 (35376) - http://www.bohemiancoding.com/sketch -->
    <title>Page 1</title>
    <desc>Created with Sketch.</desc>
    <defs></defs>
    <g id="Page-1" stroke="none" stroke-width="1" fill="none" fill-rule="evenodd">
        <g transform="translate(0.000000, -1.000000)" id="Group-48">
            <g transform="translate(0.000000, 0.945000)">
                <path d="M73.9497,18.7117 L45.3127,1.7127 C41.8947,-0.3163 37.6817,-0.3163 34.2637,1.7127 L5.6267,18.7117 C2.2097,20.7407 0.1037,24.4897 0.1037,28.5477 L0.1037,62.5457 C0.1037,66.6027 2.2097,70.3537 5.6277,72.3827 L34.2647,89.3787 C35.9737,90.3937 37.8797,90.8997 39.7887,90.8997 C41.6967,90.8997 43.6027,90.3937 45.3117,89.3787 L73.9487,72.3827 C77.3667,70.3537 79.4737,66.6027 79.4737,62.5457 L79.4737,28.5477 C79.4737,24.4897 77.3667,20.7407 73.9497,18.7117 Z" id="Fill-2" fill="#FEFEFE"></path>
                <path d="M35.2656,87.6382 L6.6286,70.6422 C3.8276,68.9792 2.0876,65.8772 2.0876,62.5452 L2.0876,28.5482 C2.0876,25.2162 3.8276,22.1142 6.6276,20.4522 L35.2656,3.4532 C36.6386,2.6382 38.2026,2.2072 39.7886,2.2072 C41.3736,2.2072 42.9376,2.6382 44.3116,3.4532 L72.9486,20.4522 C75.3086,21.8532 76.9006,24.2792 77.3486,27.0002 C76.3986,24.9732 74.2566,24.4222 71.7606,25.8802 L44.6686,42.6142 C41.2906,44.5892 38.7996,46.8052 38.7976,50.8782 L38.7976,84.2612 C38.7956,86.7002 39.7806,88.2802 41.2936,88.7382 C40.7966,88.8242 40.2956,88.8842 39.7886,88.8842 C38.2026,88.8842 36.6386,88.4532 35.2656,87.6382 M73.9496,18.7112 L45.3126,1.7132 C43.6036,0.6982 41.6956,0.1912 39.7886,0.1912 C37.8806,0.1912 35.9726,0.6982 34.2636,1.7132 L5.6266,18.7112 C2.2096,20.7402 0.1036,24.4902 0.1036,28.5482 L0.1036,62.5452 C0.1036,66.6022 2.2096,70.3532 5.6276,72.3822 L34.2646,89.3792 C35.9746,90.3932 37.8806,90.9002 39.7886,90.9002 C41.6966,90.9002 43.6026,90.3932 45.3116,89.3792 L73.9496,72.3822 C77.3676,70.3532 79.4736,66.6022 79.4736,62.5452 L79.4736,28.5482 C79.4736,24.4902 77.3676,20.7402 73.9496,18.7112" id="Fill-4" fill="#3E474A"></path>
                <path d="M66.4428,65.8321 L59.3118,70.1001 C59.1228,70.2101 58.9838,70.3341 58.9828,70.5611 L58.9828,72.4271 C58.9828,72.6551 59.1358,72.7501 59.3248,72.6391 L66.5658,68.2381 C66.7548,68.1281 66.7838,67.9171 66.7848,67.6901 L66.7848,66.0441 C66.7848,65.8171 66.6318,65.7221 66.4428,65.8321" id="Fill-6" fill="#47B353"></path>
                <path d="M51.258,50.1254 C51.489,50.0084 51.679,50.1524 51.682,50.4544 L51.706,52.9214 C52.739,52.5104 53.636,52.4004 54.449,52.5884 C54.625,52.6354 54.703,52.8754 54.631,53.1604 L54.088,55.3464 C54.046,55.5114 53.953,55.6784 53.841,55.7824 C53.794,55.8284 53.746,55.8644 53.698,55.8884 C53.625,55.9254 53.553,55.9374 53.484,55.9234 C53.113,55.8394 52.231,55.6464 50.843,56.3494 C49.387,57.0864 48.878,58.3514 48.888,59.2904 C48.9,60.4114 49.475,60.7514 51.461,60.7854 C54.107,60.8294 55.25,61.9854 55.278,64.6504 C55.305,67.2674 53.908,70.0774 51.771,71.7994 L51.818,74.2414 C51.821,74.5354 51.63,74.8724 51.399,74.9894 L49.953,75.8224 C49.721,75.9394 49.531,75.7954 49.528,75.5014 L49.503,73.0994 C48.264,73.6144 47.009,73.7384 46.207,73.4164 C46.056,73.3574 45.991,73.1344 46.051,72.8804 L46.575,70.6724 C46.617,70.4984 46.709,70.3244 46.834,70.2134 C46.878,70.1704 46.924,70.1374 46.97,70.1144 C47.053,70.0724 47.134,70.0634 47.203,70.0894 C48.067,70.3804 49.172,70.2444 50.235,69.7064 C51.585,69.0234 52.488,67.6464 52.474,66.2784 C52.461,65.0374 51.789,64.5214 50.155,64.5094 C48.075,64.5154 46.136,64.1054 46.104,61.0434 C46.078,58.5224 47.389,55.8994 49.464,54.2404 L49.438,51.7754 C49.435,51.4724 49.62,51.1394 49.858,51.0194 L51.258,50.1254 Z" id="Fill-8" fill="#FEFEFE"></path>
            </g>
        </g>
    </g>
</svg>