<?xml version="1.0" encoding="utf-8"?>
<!-- Generator: Adobe Illustrator 16.0.3, SVG Export Plug-In . SVG Version: 6.00 Build 0)  -->
<!DOCTYPE svg PUBLIC "-//W3C//DTD SVG 1.1//EN" "http://www.w3.org/Graphics/SVG/1.1/DTD/svg11.dtd">
<svg version="1.1" xmlns="http://www.w3.org/2000/svg" xmlns:xlink="http://www.w3.org/1999/xlink" x="0px" y="0px" width="960px"
	 height="960px" viewBox="0 0 960 960" enable-background="new 0 0 960 960" xml:space="preserve">
<g id="Layer_1" display="none">
	<g id="SKlearn" display="inline">
		<path fill-rule="evenodd" clip-rule="evenodd" fill="#E67006" d="M598.507,742.213c-18.937,0-37.873,0-56.811,0
			c-4.798-0.615-9.573-1.355-14.358-1.75c-25.995-2.203-51.723-6.213-76.628-14.023c-37.167-11.658-43.79-17.188-56.822-49.289
			c-0.197-0.51-0.389-1.008-0.574-1.529c-13.13-36.008-18.248-73.512-19.146-111.547c-0.452-19.134,0.788-38.35,2.225-57.459
			c2.022-26.853,7.788-53.044,16.184-78.639c11.589-35.307,28.255-67.93,53.403-95.524c39.647-43.5,87.151-75.688,142.56-95.906
			c24.429-8.912,49.555-14.846,75.526-17.001c6.026-0.498,12.04-1.17,18.067-1.756c4.311,0,8.646,0,12.98,0
			c1.843,0.319,3.686,0.696,5.54,0.933c13.094,1.657,26.399,2.364,39.263,5.087c96.678,20.467,157.057,98.792,161.044,196.049
			c0.812,19.626-0.579,39.148-4.01,58.502c-4.206,23.897-11.125,46.971-20.698,69.257c-0.532,1.217-56.173,91.266-57.019,92.285
			c-28.162,34.502-62.582,60.6-104.199,77.01c-32.751,12.922-66.719,20.422-101.73,23.516
			C608.357,740.857,603.443,741.598,598.507,742.213z"/>
		<path fill-rule="evenodd" clip-rule="evenodd" fill="#4B88D9" d="M50.545,549.82c0.597-4.521,1.315-9.041,1.779-13.572
			c5.123-49.404,42.927-90.859,91.607-100.669c42.063-8.466,80.974,0.667,117.816,20.982c22.101,12.169,41.733,27.652,57.569,47.435
			c17.1,21.381,26.14,46.392,31.332,72.977c3.963,20.282,4.902,40.795,3.922,61.342c-0.881,18.625-4.091,36.912-8.68,55.061
			c-4.717,18.635-15.779,29.842-34.211,35.033c-16.711,4.719-33.585,7.73-50.888,8.891c-27.478,1.889-54.418-0.789-81.003-7.986
			c-46.073-12.48-78.413-41.941-102.269-82.027c-12.696-21.359-21.145-44.295-24.871-68.887c-0.904-5.992-1.408-12.029-2.104-18.01
			C50.545,556.842,50.545,553.33,50.545,549.82z"/>
	</g>
</g>
<g id="Layer_2" display="none">
	<g id="Hadoop" display="inline">
		<path fill-rule="evenodd" clip-rule="evenodd" fill="#0D0C08" d="M92.585,407.514c6.294-1.387,9.267-6.827,11.884-11.493
			c43.07-76.653,112.376-112.945,195.807-126.992c18.946-3.193,34.564-9.594,47.814-24.394
			c12.268-13.69,26.407-26.186,46.534-28.533c10.447-1.209,13.633-11.891,19.657-18.605c54.706-61.113,123.187-85.507,203.723-74.32
			c31.99,4.459,57.734,23.818,81.76,44.521c22.758,19.608,45.431,39.23,70.935,55.353c18.021,11.408,30.453,28.491,39.5,47.131
			c5.96,12.247,11.351,11.095,20.482,5.121c8.69-5.668,14.253-13.783,20.056-21.962c20.084-28.384,53.553-25.24,68.759,6.6
			c12.118,25.411,17.268,52.792,21.193,80.443c0.555,3.89-1.365,8.847,4.083,10.974c0,7.169,0,14.345,0,21.514
			c-5.875,4.31-5.591,8.612,0,12.922c0,4.295,0,8.605,0,12.908c-5.591,4.295-5.875,8.605,0,12.901c0,7.169,0,14.359,0,21.535
			c-6.928,2.717-5.15,9.658-6.416,14.644c-22.645,89.227-73.736,127.888-166.149,123.691c-16.756-0.796-25.589,0.584-31.407,19.928
			c-11.108,36.94-70.777,70.494-113.777,27.154c-6.713-6.742-12.375-15.504-25.488-19.814c4.863,13.541,8.277,24.821,12.914,35.589
			c7.482,17.41,10.555,35.417,10.896,54.265c0.256,13.455,0.882,26.655,4.75,40.14c8.705,30.297-5.234,49.229-36.299,50.638
			c-21.449,0.967-43.753,2.66-64.307-2.006c-32.545-7.439-49.556,13.186-64.74,32.9c-30.098,39.072-66.461,41.334-96.894,2.332
			c-12.788-16.414-24.103-33.854-32.331-53.013c-7.518-17.495-9.872-34.621,12.865-50.595c-11.507,0-18.32,0.697-24.941-0.156
			c-16.166-2.006-29.892-2.589-25.617,21.009c0.839,4.58-3.62,10.683-6.728,15.376c-8.848,13.285-14.146,26.799-15.049,43.554
			c-1.771,32.474-16.621,43.625-49.976,39.998c-28.505-3.087-56.256-10.454-83.004-20.682
			c-26.016-9.929-31.022-21.819-20.803-48.589c4.523-11.849,2.632-14.665-10.369-16.443c-37.971-5.148-76.895-44.748-84.142-82.413
			c-2.503-13.058-0.555-23.683,10.383-32.56c8.328-6.742,16.215-14.352,22.958-22.615c11.443-14.068,18.705-29.543,16.002-48.945
			c-2.269-16.271-2.888-32.942-2.368-49.342c0.569-18.094,5.113-33.939-23.313-36.869c-20.661-2.148-43.817-62.393-34.159-82.42
			c14.046-29.159,38.476-46.335,73.047-56.27c-11.756,25.902,9.772,46.932,1.65,70.06c-9.132,11.542-9.63-8.094-16.642-4.765
			c-2.446,9.139-4.843,18.107-7.617,28.519C80.516,422.826,87.593,416.56,92.585,407.514z M384.923,239.309l0.156-0.192
			c-4.729,0.797-8.207,3.059-9.388,8.016l-0.121-0.079c-13.036,6.764-21.514,18.584-30.34,29.444
			c-33.995,41.84-76.098,77.122-99.447,127.703c-11.102,24.045-10.589,43.276,9.374,61.078c7.24,11.18,14.487,22.359,22.146,34.194
			c8.627-4.538,9.936-17.481,24.835-18.918c-8.499,17.468-15.966,31.776-22.453,46.498c-6.436,14.594-7.389,27.595,6.55,40.438
			c24.92,22.958,49.322,27.381,80.074,10.782c29.479-15.917,57.735-34.649,91.773-39.813c11.038-1.664,13.036-10.213,15.575-18.121
			c8.478-26.527,7.815-53.61,3.407-80.699c-5.071-31.193-9.388-62.358-4.516-95.13c11.606,6.273,5.697,16.614,9.004,23.889
			c3.2,21.087,6.614,42.131,9.552,63.24c4.942,35.617,5.696,70.991-6.43,105.57c-2.368,6.757-3.961,13.157-13.356,14.195
			c-33.398,3.655-62.159,19.714-90.436,36.214c-22.986,13.399-46.569,21.01-73.225,14.068
			c-47.835-30.184-55.552-36.756-46.434-69.314c6.458-7.538,5.185-15.375,1.045-23.369c-7.069-13.697-14.964-26.855-26.165-37.68
			c-21.45-25.34-19.416-51.249-2.575-78.032c7.518-11.934,13.769-24.657,20.597-37.018c17.958-21.571,35.922-43.155,55.353-66.511
			C146.786,305.443,48.107,462.845,109.668,603.463c5.042,24.024,15.561,46.413,29.82,65.303
			c19.124,25.347,17.787,50.012,9.431,77.791c-11.585,38.475-8.471,42.572,31.663,52.429c3.449,0.854,6.941,1.565,10.419,2.361
			c12.119,4.495,24.743,5.988,37.58,7.056c18.775,1.564,28.811-5.633,27.346-25.319c-0.711-9.615,0.924-18.619,7.112-26.058
			c20.454-24.665,20.738-53.439,17.609-82.998c0.647-4.139,1.294-8.277,1.949-12.432c0.604,1.082,1.529,1.65,2.781,1.622
			c1.081,6.757-0.1,13.925,3.954,20.099c0.619,3.086,2.525,4.182,5.512,3.57c2.781,0.355,5.562,0.697,8.342,1.081
			c19.401,6.329,39.315,2.958,59.022,2.93c19.195-0.028,37.508-2.275,44.258-24.806c0.192,9.928,0.228,19.87,0.619,29.77
			c0.285,7.127,0,7.852-9.509,9.573c-44.436,8.065-53.816,33.711-29.038,71.561c1.145,1.749,2.795,3.157,4.203,4.723
			c4.054,11.834,12.318,20.866,21.244,28.931c15.084,13.599,33.27,13.656,44.905-2.503c13.335-18.462,30.717-32.061,48.674-44.336
			c30.135-20.597,48.854-49.514,65.168-80.536c13.299-25.305,19.998-53.154,28.263-80.379c4.794-15.803,4.979-29.245-14.238-35.275
			c-4.097-1.281-6.244-3.699-0.669-6.416c28.121,2.816,47.68,20.184,67.252,38.32c15.93,14.75,33.057,28.404,57.293,18.221
			c22.674-5.32,34.28-20.938,39.515-42.502c1.366-5.633,7.567-13.1-2.532-15.66c-9.104-2.305-8.904,6.656-10.554,12.318
			c-6.643,22.829-15.731,29.287-40.282,26.783c-6.102-0.625-11.336-2.305-13.356,5.52c-14.153-6.088-11.507-18.094-9.089-28.889
			c3.982-17.881,8.022-35.646,6.315-55.219c30.909,15.676,61.931,25.361,94.589,29.743c63.553,17.054,122.326-8.35,150.234-66.853
			c34.422-72.094,22.672-144.43-2.22-216.247c-0.811-2.34-3.783-3.933-5.761-5.867l0.029,0.028
			c-9.004-13.278-19.416-13.783-28.662-1.266c-13.285,17.951-28.191,33.064-50.494,39.187c-4.211,1.16-7.084,4.502-7.539,9.267
			c-5.035,16.251,3.3,32.16,1.109,48.454c-1.621,11.798-1.395,23.854-9.389,34.386c-7.48-6.636-0.213-10.59-0.754-15.148
			c-1.18-10.035,4.623-24.643-7.211-28.405c-10.896-3.471-18.406,8.186-23.611,18.015c-0.328,0.619-0.627,1.415-1.167,1.742
			c-2.589,1.593,0.54,9.104-6.201,6.195c-5.804-2.475-2.974-6.002-1.849-10.327c1.82-6.92,12.061-13.456,6.855-19.316
			c-7.881-8.89-4.552-9.558,3.926-9.793c4.979-0.149,10.014,0.149,14.963,0.726c3.314,0.391,7.426,2.667,8.479-2.219
			c0.91-4.203-1.067-10.874-5.207-10.042c-23.127,4.644-33.084-7.894-38.617-27.36c-0.242-0.796-1.438-1.33-2.119-1.92
			c13.782-7.39,27.565-14.331,46.498-8.641c-12.531-26.741-26.77-47.501-51.619-58.788c-5.661-2.575-15.618-1.401-17.723-5.22
			c-15.875-28.64-43.412-44.279-68.773-61.376c-32.473-21.898-68.701-30.326-107.32-15.142c-6.187-1.65-11.705-1.138-15.589,4.751
			c0,0-0.427-1.416-0.44-1.401c-45.189,11.5-86.361,29.109-112.263,73.552c8.093,1.031,14.217,1.807,20.34,2.589
			c-15.34,5.597-32.509,2.916-47.38,10.562C391.402,234.223,387.206,234.821,384.923,239.309z M78.525,617.559
			c-37.345,33.711-38.476,45.659-7.396,78.09c11.066,13.84,25.575,22.317,42.281,27.537c8.542,2.646,15.789,0.654,21.044-6.287
			c5.533-7.254,7.076-14.408,1.181-23.398c-19.053-29.13-33.469-60.664-44.884-95.584C85.914,605.711,82.223,611.613,78.525,617.559
			z M518.166,762.459c29.06,0,52.33,0.625,75.543-0.214c17.524-0.654,21.877-14.28,18.406-27.565
			c-4.808-18.406-4.068-36.841-5.206-55.289c-1.224-19.686-8.321-37.268-16.728-56.654c-10.412,24.664-15.561,49.072-26.912,71.262
			C551.934,716.117,537.923,736.457,518.166,762.459z M61.385,359.899c-2.71,2.126-5.541,4.132-8.115,6.408
			c-29.515,26.03-31.236,56.419-4.922,85.841c10.256,11.493,21.905,6.984,32.9,2.063c5.135-2.29,11.215-9.48,7.254-13.513
			c-7.354-7.453-14.871,2.454-22.545,3.926c-7.211,1.401-24.565-17.723-20.056-21.129C68.07,406.746,50.02,379.542,61.385,359.899z"
			/>
		<path fill-rule="evenodd" clip-rule="evenodd" fill="#1F1F1F" d="M944.771,385.794c-5.591-4.31-5.875-8.613,0-12.922
			C944.771,377.181,944.771,381.484,944.771,385.794z"/>
		<path fill-rule="evenodd" clip-rule="evenodd" fill="#1F1F1F" d="M944.771,411.603c-5.875-4.295-5.591-8.605,0-12.901
			C944.771,402.998,944.771,407.308,944.771,411.603z"/>
		<path fill-rule="evenodd" clip-rule="evenodd" fill="#EFEFEF" d="M92.585,407.514c-4.993,9.046-12.069,15.312-24.885,17.922
			c2.773-10.412,5.17-19.38,7.617-28.519c7.012-3.329,7.51,16.308,16.642,4.765C92.166,403.624,92.379,405.58,92.585,407.514z"/>
		<path fill-rule="evenodd" clip-rule="evenodd" fill="#FBE84F" d="M551.094,143.908c38.619-15.184,74.848-6.756,107.32,15.142
			c25.361,17.097,52.898,32.736,68.773,61.376c2.104,3.819,12.062,2.646,17.723,5.22c24.85,11.287,39.088,32.046,51.619,58.788
			c-18.933-5.69-32.716,1.251-46.498,8.641c0.682,0.59,1.877,1.124,2.119,1.92c5.533,19.466,15.49,32.004,38.617,27.36
			c4.14-0.832,6.117,5.839,5.207,10.042c-1.053,4.886-5.164,2.61-8.479,2.219c-4.949-0.576-9.984-0.875-14.963-0.726
			c-8.478,0.235-11.807,0.903-3.926,9.793c5.205,5.86-5.035,12.396-6.855,19.316c-1.125,4.324-3.955,7.852,1.849,10.327
			c6.741,2.909,3.612-4.602,6.201-6.195c0.54-0.327,0.839-1.124,1.167-1.742c5.205-9.829,12.716-21.485,23.611-18.015
			c11.834,3.762,6.031,18.37,7.211,28.405c0.541,4.559-6.727,8.513,0.754,15.148c7.994-10.533,7.768-22.588,9.389-34.386
			c2.19-16.294-6.145-32.203-1.109-48.454c11.977,9.139,23.839,0.313,35.773-0.185c16.172-3.435,27.65-12.047,31.676-28.846
			c11.28-0.896,7.511-17.751,19.246-18.157l-0.029-0.028c0.441,7.83-0.525,16.059,1.521,23.413
			c12.703,45.417,13.883,90.991,7.396,137.631c-9.558,68.766-43.41,107.099-109.852,122.049c-13.754,3.086-28.816-4.48-41.32,5.874
			c-32.658-4.382-63.68-14.067-94.589-29.743c1.707,19.572-2.333,37.338-6.315,55.219c-2.418,10.795-5.064,22.801,9.089,28.889
			c5.874,10.98,18.747,7.822,27.21,13.541c-24.236,10.184-41.363-3.471-57.293-18.221c-19.572-18.137-39.131-35.504-67.252-38.32
			c0.285-4.779-4.011-4.451-6.457-6.457c-5.704-4.751-12.574-9.857-17.979-4.41c-4.865,4.908,1.223,11.579,4.936,16.941
			c4.551,6.557,7.538,13.896,6.457,22.146c-8.293,62.885-30.51,118.287-84.127,156.947c-12.197,8.776-23.619,19.217-40.453,11.934
			c-3.833-1.692-7.39-0.739-8.897,3.129c-8.861,22.561-28.007,20.967-46.825,20.284c-1.408-1.565-3.058-2.974-4.203-4.723
			c-24.778-37.85-15.397-63.495,29.038-71.561c9.509-1.722,9.793-2.446,9.509-9.573c-0.391-9.899-0.427-19.842-0.619-29.77
			c2.141-6.131,7.937-11.935-0.505-21.635c-12.425,25.973-35.894,30.183-60.182,34.578c-14.188,2.518-29.664,0.17-42.594,8.933
			c-2.781-0.384-5.562-0.726-8.342-1.081c-1.835-1.181-3.67-2.361-5.512-3.57c-4.054-6.174-2.873-13.342-3.954-20.099
			c0.405-3.513,1.365-7.325-3.364-8.662c-0.654-0.185-2.781,1.935-2.638,2.247c0.789,1.721,2.091,3.229,3.222,4.793
			c-0.654,4.154-1.302,8.293-1.949,12.432c-7.973,1.225-6.742,7.938-8.015,13.243c-7.133,29.714-21.237,54.35-49.948,68.289
			c-3.278,1.565-7.923,3.741-6.956,7.183c6.365,22.531-12.531,28.307-24.728,38.604c-3.478-0.796-6.97-1.508-10.419-2.361
			c-40.133-9.856-43.248-13.954-31.663-52.429c8.356-27.779,9.693-52.444-9.431-77.791c-14.259-18.89-24.778-41.278-29.82-65.303
			c0.014-12.104-1.138-23.996-2.553-36.058c-11.749-100.307,41.313-185.843,147.012-211.133
			c-6.828,12.361-13.079,25.084-20.597,37.018c-16.841,26.784-18.875,52.692,2.575,78.032c-3.478,1.707-6.621,4.779-4.936,8.293
			c8.797,18.249,13.313,39.03,30.055,52.756c-9.118,32.559-1.401,39.131,46.434,69.314c1.572,8.861,8.997,9.899,15.789,12.047
			c33,10.54,60.878-7.268,90.159-16.557c19.615-6.188,38.198-16.215,59.072-17.595c29.159-1.935,38.447-10.185,41.662-39.301
			c4.808-43.853-6.23-85.749-16.585-127.596c-3.77-15.205-2.276-32.687-16.201-44.286c-3.307-7.275,2.603-17.616-9.004-23.889
			c-4.872,32.772-0.555,63.937,4.516,95.13c4.409,27.089,5.071,54.172-3.407,80.699c-2.539,7.908-4.538,16.457-15.575,18.121
			c-34.038,5.164-62.294,23.896-91.773,39.813c-30.752,16.599-55.153,12.176-80.074-10.782
			c-13.939-12.844-12.986-25.845-6.55-40.438c6.486-14.722,13.954-29.03,22.453-46.498c-14.899,1.437-16.208,14.38-24.835,18.918
			c-7.66-11.835-14.907-23.014-22.132-34.194c1.315-11.429,3.968-22.766,9.722-32.58c31.677-54.03,60.765-109.624,97.847-160.411
			c5.469-7.482,15.568-13.321,12.83-25.233c0,0,0.121,0.079,0.121,0.093c7.297,2.176,9.843-1.167,9.388-8.03l-0.156,0.192
			c4.971,0.967,7.986-2.006,10.838-5.348c14.871-7.646,32.04-4.964,47.387-10.562c24.977-9.843,48.482-6.906,70.593,8.108
			c0.996,0.533,1.992,1.045,2.973,1.564c-0.469-1.031-0.953-2.077-1.422-3.108c-8.776-31.25-9.63-60.615,19.785-82.72l0.427,1.416
			C541.479,149.676,546.686,148.083,551.094,143.908z M635.158,364.167l-0.484,0.263c14.623-0.647,23.043-13.62,35.816-18.136
			c3.457-1.237,1.024-4.424,0.186-7.077c-9.459-30.083-34.066-36.079-55.531-13c-5.633,6.06-13.015,11.386-14.209,20.682
			c-13.456,6.834-14.65,10.021-8.463,11.721c22.146,6.045,22.971,22.616,20.666,47.344c8.492-16.934,23.242-21.642,21.849-37.061
			c0.427-0.505,1.294-1.067,1.252-1.522C636.097,366.293,635.527,365.248,635.158,364.167z M372.491,316.523
			c-7.496,22.253-14.722,44.6-22.645,66.689c-2.859,7.972-8.57,14.956-7.645,24.109c-0.342,0.576-0.676,1.181-1.01,1.757
			c0.32-0.604,0.64-1.195,0.975-1.799c19.017-17.112,29.052-39.955,40.14-62.237c3.812-7.638,4.417-20.283,17.175-18.768
			c12.574,1.507,3.755,14.658,9.985,21.563c7.78-33.718,22.438-62.237,52.991-80.06c3.037-1.785,9.459-3.485,5.44-8.976
			c-1.479-1.991-6.543-1.373-9.964-1.935c-53.752-2.347-61.81,2.752-82.193,51.925C374.667,311.374,373.572,313.941,372.491,316.523
			z M563.924,302.256c3.115-16.265,16.002-27.061,26.301-45.517C567.693,268.354,558.832,281.39,563.924,302.256z M482.037,252.679
			c-1.06,0.661-2.084,1.287-3.101,1.906c1.052,0.562,2.126,1.579,3.172,1.564c1.052-0.014,2.091-1.081,3.13-1.686
			C484.178,253.874,483.125,253.291,482.037,252.679z"/>
		<path fill-rule="evenodd" clip-rule="evenodd" fill="#F6F0B4" d="M254.127,356.272
			c-105.698,25.29-158.761,110.826-147.012,211.133c1.415,12.062,2.567,23.953,2.553,36.058
			c-61.562-140.618,37.117-298.02,199.811-313.702C290.049,313.117,272.084,334.701,254.127,356.272z"/>
		<path fill-rule="evenodd" clip-rule="evenodd" fill="#E8D348" d="M372.74,781.718c18.818,0.683,37.964,2.276,46.825-20.284
			c1.508-3.868,5.064-4.821,8.897-3.129c16.834,7.283,28.256-3.157,40.453-11.934c53.618-38.66,75.834-94.063,84.127-156.947
			c1.081-8.25-1.906-15.59-6.457-22.146c-3.713-5.362-9.801-12.033-4.936-16.941c5.404-5.447,12.274-0.341,17.979,4.41
			c2.446,2.006,6.742,1.678,6.457,6.457c-5.575,2.717-3.428,5.135,0.669,6.416c19.217,6.03,19.032,19.473,14.238,35.275
			c-8.265,27.225-14.964,55.074-28.263,80.379c-16.314,31.022-35.033,59.939-65.168,80.536
			c-17.957,12.275-35.339,25.874-48.674,44.336c-11.635,16.159-29.82,16.102-44.905,2.503
			C385.058,802.584,376.794,793.552,372.74,781.718z"/>
		<path fill-rule="evenodd" clip-rule="evenodd" fill="#E6D147" d="M481.554,368.398c13.925,11.6,12.432,29.081,16.201,44.286
			c10.354,41.847,21.393,83.744,16.585,127.596c-3.215,29.116-12.503,37.366-41.662,39.301
			c-20.874,1.38-39.457,11.407-59.072,17.595c-29.28,9.289-57.159,27.097-90.159,16.557c-6.792-2.147-14.217-3.186-15.789-12.047
			c26.656,6.941,50.239-0.669,73.225-14.068c28.277-16.5,57.038-32.559,90.436-36.214c9.395-1.038,10.988-7.438,13.356-14.195
			c12.126-34.579,11.372-69.954,6.43-105.57C488.168,410.529,484.754,389.485,481.554,368.398z"/>
		<path fill-rule="evenodd" clip-rule="evenodd" fill="#E4CF46" d="M518.166,762.459c19.757-26.002,33.768-46.342,45.104-68.461
			c11.352-22.189,16.5-46.598,26.912-71.262c8.406,19.387,15.504,36.969,16.728,56.654c1.138,18.448,0.398,36.883,5.206,55.289
			c3.471,13.285-0.882,26.911-18.406,27.565C570.496,763.084,547.226,762.459,518.166,762.459z"/>
		<path fill-rule="evenodd" clip-rule="evenodd" fill="#E3CE46" d="M755.236,549.839c12.504-10.354,27.566-2.788,41.32-5.874
			c66.441-14.95,100.294-53.283,109.852-122.049c6.486-46.64,5.307-92.214-7.396-137.631c-2.047-7.354-1.08-15.583-1.521-23.413
			c1.978,1.935,4.95,3.527,5.761,5.867c24.892,71.817,36.642,144.153,2.22,216.247C877.563,541.489,818.789,566.893,755.236,549.839
			z"/>
		<path fill-rule="evenodd" clip-rule="evenodd" fill="#F7F1B4" d="M375.571,247.053c2.738,11.913-7.361,17.751-12.83,25.233
			c-37.082,50.787-66.17,106.381-97.847,160.411c-5.753,9.814-8.406,21.151-9.722,32.58c-19.978-17.801-20.49-37.032-9.388-61.078
			c23.349-50.581,65.452-85.863,99.447-127.703C354.057,265.637,362.535,253.817,375.571,247.053z"/>
		<path fill-rule="evenodd" clip-rule="evenodd" fill="#F7F1B4" d="M513.742,231.521c-22.111-15.028-45.616-17.965-70.593-8.122
			c-6.13-0.782-12.254-1.558-20.347-2.589c25.901-44.442,67.073-62.052,112.263-73.566c-29.401,22.104-28.548,51.47-19.771,82.72
			C514.738,230.461,514.24,230.973,513.742,231.521z"/>
		<path fill-rule="evenodd" clip-rule="evenodd" fill="#E7D247" d="M191.001,801.347c12.197-10.298,31.093-16.073,24.728-38.604
			c-0.967-3.441,3.677-5.617,6.956-7.183c28.711-13.939,42.814-38.575,49.948-68.289c1.273-5.306,0.042-12.019,8.015-13.243
			c3.129,29.559,2.845,58.333-17.609,82.998c-6.188,7.438-7.823,16.442-7.112,26.058c1.465,19.687-8.57,26.884-27.346,25.319
			C215.744,807.335,203.12,805.842,191.001,801.347z"/>
		<path fill-rule="evenodd" clip-rule="evenodd" fill="#FBE84F" d="M71.128,695.648c-31.079-32.431-29.949-44.379,7.396-78.09
			c13.527,8.18,14.672,23.811,20.383,36.186C117.043,693.06,113.978,696.9,71.128,695.648z"/>
		<path fill-rule="evenodd" clip-rule="evenodd" fill="#E3CE46" d="M71.128,695.648c42.85,1.252,45.915-2.589,27.779-41.904
			c-5.711-12.375-6.856-28.006-20.383-36.186c3.698-5.945,7.389-11.848,12.226-19.643c11.415,34.92,25.831,66.454,44.884,95.584
			c5.896,8.99,4.353,16.145-1.181,23.398c-5.256,6.941-12.503,8.934-21.044,6.287C96.703,717.966,82.195,709.488,71.128,695.648z"/>
		<path fill-rule="evenodd" clip-rule="evenodd" fill="#EEDA4A" d="M61.385,359.899c-11.365,19.644,6.685,46.847-15.483,63.596
			c-4.509,3.406,12.844,22.531,20.056,21.129c7.674-1.472,15.191-11.379,22.545-3.926c3.961,4.033-2.119,11.223-7.254,13.513
			c-10.995,4.921-22.645,9.431-32.9-2.063c-26.314-29.422-24.593-59.812,4.922-85.841C55.845,364.031,58.675,362.025,61.385,359.899
			z"/>
		<path fill-rule="evenodd" clip-rule="evenodd" fill="#E3CE46" d="M303.185,687.968c12.93-8.763,28.405-6.415,42.594-8.933
			c24.288-4.396,47.757-8.605,60.182-34.578c8.442,9.7,2.646,15.504,0.505,21.635c-6.75,22.53-25.063,24.777-44.258,24.806
			C342.5,690.926,322.586,694.297,303.185,687.968z"/>
		<path fill-rule="evenodd" clip-rule="evenodd" fill="#E3CE46" d="M846.598,307.903c-11.935,0.498-23.797,9.324-35.773,0.185
			c0.455-4.765,3.328-8.107,7.539-9.267c22.303-6.123,37.209-21.236,50.494-39.187c9.246-12.517,19.658-12.012,28.662,1.266
			c-11.735,0.405-7.966,17.261-19.246,18.157C867.635,288.587,852.557,293.224,846.598,307.903z"/>
		<path fill-rule="evenodd" clip-rule="evenodd" fill="#D7C342" d="M690.631,617.744c-8.463-5.719-21.336-2.561-27.21-13.541
			c2.021-7.824,7.255-6.145,13.356-5.52c24.551,2.504,33.64-3.954,40.282-26.783c1.649-5.662,1.45-14.623,10.554-12.318
			c10.1,2.561,3.898,10.027,2.532,15.66C724.911,596.807,713.305,612.424,690.631,617.744z"/>
		<path fill-rule="evenodd" clip-rule="evenodd" fill="#E6D147" d="M261.225,532.371c-16.742-13.726-21.258-34.507-30.055-52.756
			c-1.686-3.514,1.458-6.586,4.936-8.293c11.201,10.824,19.096,23.982,26.165,37.68
			C266.409,516.996,267.682,524.833,261.225,532.371z"/>
		<path fill-rule="evenodd" clip-rule="evenodd" fill="#E7D247" d="M282.596,661.596c-1.131-1.564-2.433-3.072-3.222-4.793
			c-0.143-0.313,1.984-2.432,2.638-2.247c4.729,1.337,3.77,5.149,3.364,8.662C284.125,663.246,283.201,662.678,282.596,661.596z"/>
		<path fill-rule="evenodd" clip-rule="evenodd" fill="#F7F1B4" d="M551.094,143.908c-4.408,4.175-9.615,5.768-15.589,4.751
			C539.389,142.771,544.907,142.258,551.094,143.908z"/>
		<path fill-rule="evenodd" clip-rule="evenodd" fill="#F7F1B4" d="M385.08,239.116c0.455,6.863-2.091,10.206-9.388,8.03
			C376.873,242.175,380.35,239.913,385.08,239.116z"/>
		<path fill-rule="evenodd" clip-rule="evenodd" fill="#F7F1B4" d="M395.762,233.96c-2.852,3.342-5.867,6.315-10.838,5.348
			C387.206,234.821,391.402,234.223,395.762,233.96z"/>
		<path fill-rule="evenodd" clip-rule="evenodd" fill="#E3CE46" d="M289.331,683.316c1.842,1.209,3.677,2.39,5.512,3.57
			C291.856,687.498,289.95,686.402,289.331,683.316z"/>
		<path fill-rule="evenodd" clip-rule="evenodd" fill="#E7D247" d="M457.935,256.868c3.421,0.562,8.485-0.057,9.964,1.935
			c4.019,5.491-2.404,7.19-5.44,8.976c-30.553,17.822-45.211,46.341-52.991,80.06c-6.23-6.906,2.588-20.056-9.985-21.563
			c-12.759-1.515-13.363,11.13-17.175,18.768c-11.088,22.282-21.123,45.125-40.14,62.237l0.036,0.042
			c-0.925-9.153,4.786-16.137,7.645-24.109c7.923-22.09,15.149-44.436,22.645-66.689c18.626-0.59,11.401-25.937,27.431-28.903
			c7.147,4.452,0.782,13.577,8.875,20.731C415.54,281.042,433.79,265.872,457.935,256.868z"/>
		<path fill-rule="evenodd" clip-rule="evenodd" fill="#100F05" d="M600.936,346.898c1.194-9.295,8.576-14.622,14.209-20.682
			c21.465-23.078,46.072-17.083,55.531,13c0.839,2.653,3.271,5.839-0.186,7.077c-12.773,4.516-21.193,17.488-35.816,18.136
			c-0.142-5.633,11.266-12.197-0.938-16.792c-10.242-3.848-14.693,3.186-17.923,11.436
			C609.654,355.945,611.404,343.869,600.936,346.898z"/>
		<path fill-rule="evenodd" clip-rule="evenodd" fill="#141306" d="M457.935,256.868c-24.145,9.004-42.395,24.174-49.137,51.484
			c-8.093-7.155-1.728-16.279-8.875-20.731c-16.03,2.966-8.805,28.313-27.431,28.903c1.081-2.582,2.176-5.149,3.25-7.73
			C396.125,259.62,404.182,254.521,457.935,256.868z"/>
		<path fill-rule="evenodd" clip-rule="evenodd" fill="#E3CE46" d="M600.936,346.898c10.469-3.03,8.719,9.046,14.878,12.176
			c3.229-8.25,7.681-15.284,17.923-11.436c12.203,4.594,0.796,11.159,0.938,16.792l0.484-0.263
			c-1.053,0.412-2.119,0.796-3.187,1.209c1.011,1.166,2.021,2.354,3.016,3.527c1.394,15.419-13.356,20.127-21.849,37.061
			c2.305-24.729,1.48-41.299-20.666-47.344C586.285,356.919,587.479,353.733,600.936,346.898z"/>
		<path fill-rule="evenodd" clip-rule="evenodd" fill="#141306" d="M563.924,302.256c-5.092-20.866,3.77-33.903,26.301-45.517
			C579.926,275.195,567.039,285.992,563.924,302.256z"/>
		<path fill-rule="evenodd" clip-rule="evenodd" fill="#1F1F1F" d="M846.598,307.903c5.959-14.679,21.037-19.316,31.676-28.846
			C874.248,295.856,862.77,304.468,846.598,307.903z"/>
		<path fill-rule="evenodd" clip-rule="evenodd" fill="#E7D247" d="M482.037,252.679c1.088,0.611,2.141,1.194,3.201,1.785
			c-1.039,0.604-2.078,1.671-3.13,1.686c-1.046,0.015-2.12-1.002-3.172-1.564C479.953,253.966,480.978,253.34,482.037,252.679z"/>
		<path fill-rule="evenodd" clip-rule="evenodd" fill="#E7D247" d="M342.166,407.279c-0.334,0.604-0.654,1.195-0.975,1.799
			c0.334-0.576,0.668-1.181,1.01-1.757L342.166,407.279z"/>
		<path fill-rule="evenodd" clip-rule="evenodd" fill="#100F05" d="M634.987,368.903c-0.995-1.173-2.005-2.361-3.016-3.527
			c1.067-0.413,2.134-0.797,3.187-1.209c0.369,1.081,0.938,2.126,1.081,3.214C636.281,367.836,635.414,368.398,634.987,368.903z"/>
		<path fill-rule="evenodd" clip-rule="evenodd" fill="#F7F1B4" d="M515.293,229.963c0.469,1.031,0.953,2.077,1.422,3.108
			c-0.98-0.519-1.977-1.031-2.973-1.564C514.24,230.973,514.738,230.461,515.293,229.963z"/>
	</g>
</g>
<g id="Layer_3" display="none">
	<g id="Spark" display="inline">
		<path fill-rule="evenodd" clip-rule="evenodd" fill="#ED4C2C" d="M447.568,54.022c29.014,11.699,46.579,34.67,61.761,60.759
			c24.142,41.473,49.835,82.041,73.881,123.586c7.772,13.437,16.127,16.192,30.832,12.128
			c65.64-18.074,131.44-35.583,197.499-52.025c14.964-3.717,31.398-4.509,46.766-2.885c27.858,2.941,44.018,27.245,34.129,53.471
			c-6.707,17.848-17.938,34.783-30.153,49.625c-43.453,52.664-87.843,104.567-132.718,156.043
			c-10.293,11.804-12.006,20.934-4.266,35.025c27.31,49.803,53.439,100.284,79.585,150.734
			c5.478,10.552,11.053,21.669,13.331,33.159c9.47,47.993-31.139,90.459-78.938,79.035
			c-56.864-13.623-112.792-31.494-168.542-49.367c-28.473-9.113-27.535-10.616-48.898,11.91
			c-44.817,47.217-89.288,94.838-135.503,140.635c-16.354,16.207-36.302,29.701-56.574,40.867
			c-29.992,16.531-45.246,10.066-52.413-22.996c-6.229-28.811-10.253-58.689-10.391-88.084
			c-0.226-53.682,3.563-107.379,4.541-161.061c0.137-7.174-4.347-17.307-10.019-21.217c-14.414-9.922-30.388-17.824-46.337-25.225
			c-29.766-13.784-60.452-25.693-89.741-40.366c-14.939-7.498-29.685-17.484-41.093-29.588
			c-32.012-33.967-26.178-77.258,15.65-97.473c35.494-17.153,74.115-28.004,111.645-40.754
			c34.015-11.53,68.354-22.17,102.741-32.545c12.168-3.692,18.608-9.558,20.813-23.124c9.09-56.016,19.423-111.807,29.531-167.645
			c7.571-41.74,24.449-76.878,67.691-92.625C437.453,54.022,442.51,54.022,447.568,54.022z M445.492,182.917
			c-3.2,6.819-4.791,8.936-5.203,11.247c-10.568,59.596-21.338,119.159-31.276,178.868c-2.303,13.857-7.199,21.855-21.937,26.21
			c-56.808,16.806-113.172,35.195-169.641,53.116c-5.712,1.81-11.126,4.484-20.789,8.452c9,4.169,13.751,6.609,18.68,8.597
			c50.926,20.457,101.788,41.061,152.875,61.115c11.013,4.314,15.86,10.212,14.091,22.493
			c-4.872,33.725-9.017,67.546-13.283,101.368c-5.349,42.207-10.528,84.465-15.78,126.705c2.222,1.664,4.46,3.279,6.69,4.928
			c3.127-5.381,5.454-11.473,9.51-15.998c47.694-53.229,95.954-105.939,143.277-159.492c8.839-10.002,16.773-12.265,29.103-8.451
			c28.312,8.727,56.929,16.402,85.483,24.287c25.24,6.965,50.578,13.623,79.229,21.331c-4.217-9.389-6.479-15.238-9.389-20.716
			c-24.675-46.928-48.979-94.097-74.592-140.539c-6.916-12.539-6.366-20.546,3.168-31.445
			c39.962-45.683,78.955-92.213,118.238-138.502c4.282-5.025,8.031-10.487,14.785-19.383c-10.826,2.101-16.919,2.941-22.816,4.477
			c-57.334,15.02-114.748,29.701-171.822,45.602c-12.943,3.611-19.456,0.8-25.952-10.439
			c-20.538-35.542-41.999-70.552-63.191-105.714C465.925,216.044,456.698,201.185,445.492,182.917z"/>
	</g>
</g>
<g id="Layer_4" display="none">
	<g id="Tf" display="inline">
		<path fill-rule="evenodd" clip-rule="evenodd" fill="#F7BE3C" d="M543.029,13.137c-0.367,1.297,0.896,1.217,1.457,1.561
			c10.357,6.035,20.764,12.03,31.169,18.042c112.252,64.795,224.536,129.605,336.771,194.408c0.656,0.384,1.297,0.784,1.938,1.192
			c-0.385,1.017-1.345,1.385-2.193,1.873c-19.29,11.118-38.597,22.22-57.871,33.346c-21.243,12.271-42.486,24.565-63.745,36.852
			c-8.229-4.754-16.474-9.485-24.718-14.248c-43.864-25.333-87.728-50.683-131.606-76.032
			c-26.606-15.369-53.229-30.737-79.851-46.065c-4.21-2.425-8.245-5.163-12.743-7.06c-0.768,0.312-1.584,0.552-2.289,0.96
			c-9.156,5.291-18.281,10.629-27.423,15.896c-28.327,16.337-56.662,32.633-84.973,48.978
			c-30.152,17.394-60.288,34.835-90.432,52.244c-17.122,9.893-34.25,19.738-51.372,29.632
			c-18.162,10.485-36.324,21.003-54.485,31.513c-20.731,11.982-41.462,23.973-62.185,35.947c-0.561-0.24-1.137-0.448-1.665-0.736
			c-38.836-22.436-77.689-44.888-116.558-67.276c-2.073-1.193-3.946-2.866-6.428-3.298c0-0.304,0-0.601,0-0.905
			c1.249,0.537,1.961-0.568,2.786-1.032c105.24-60.712,210.48-121.465,315.697-182.226c58.976-34.042,117.935-68.084,176.878-102.15
			c0.592-0.336,1.617-0.32,1.537-1.417C541.492,13.137,542.262,13.137,543.029,13.137z"/>
		<path fill-rule="evenodd" clip-rule="evenodd" fill="#E45B2D" d="M43.827,300.867c2.481,0.432,4.354,2.105,6.428,3.298
			c38.869,22.388,77.722,44.84,116.558,67.276c0.528,0.288,1.104,0.496,1.665,0.736c0.008,1.145,0.032,2.281,0.032,3.426
			c0,45.561,0,91.113,0.024,136.672c0,1.105-0.288,2.29,0.44,3.33c-1.232,0.881-1.993-0.287-2.801-0.752
			c-40.062-23.084-80.091-46.217-120.152-69.301c-0.656-0.384-1.225-1.176-2.193-0.824
			C43.827,396.791,43.827,348.821,43.827,300.867z"/>
		<path fill-rule="evenodd" clip-rule="evenodd" fill="#E45B2D" d="M417.875,946.717c-1.241,0.863-1.985-0.289-2.802-0.77
			c-27.935-16.072-55.846-32.225-83.765-48.313c-12.126-7.029-24.221-14.023-36.379-20.973c-1.681-0.928-2.233-1.953-2.233-3.873
			c0.048-141.611,0.048-283.16,0.048-424.747c0-1.225-0.024-2.434-0.048-3.65c1.529-1.433,3.442-2.225,5.219-3.257
			c14.136-8.188,28.287-16.369,42.447-24.542c15.4-8.9,30.825-17.777,46.233-26.662c9.813-5.659,19.658-11.278,29.488-16.913
			c1.473,0.769,0.864,2.153,0.864,3.266c0.024,45.608,0.016,91.233,0.032,136.873c0,1.089-0.336,2.273,0.504,3.282
			c0.688,0.272,1.433,0.528,2.073,0.896c26.99,15.576,53.981,31.169,80.972,46.745c13.688,7.876,27.391,15.752,41.094,23.629
			c0.016,1.152,0.048,2.272,0.048,3.426c0,46.824,0,93.649,0,140.459h0.032c-3.202-1.281-6.004-3.282-8.949-4.963
			c-15.432-8.854-30.816-17.754-46.217-26.639c-13.215-7.619-26.454-15.288-39.677-22.908c-9.669-5.57-19.331-11.189-29.008-16.793
			c-1.625,0.192-0.84,1.505-0.84,2.193c-0.048,93.698-0.048,187.396-0.04,281.047c0,0.896-0.176,1.824,0.417,2.625
			C417.555,946.363,417.715,946.557,417.875,946.717z"/>
		<path fill-rule="evenodd" clip-rule="evenodd" fill="#EC8D24" d="M416.082,373.018c-9.83,5.635-19.675,11.254-29.488,16.913
			c-15.408,8.885-30.833,17.762-46.233,26.662c-14.16,8.172-28.311,16.353-42.447,24.542c-1.777,1.032-3.69,1.825-5.219,3.257
			c-15.913,9.157-31.833,18.29-47.753,27.479c-24.781,14.295-49.563,28.608-74.352,42.903c-0.521,0.336-1.073,0.561-1.617,0.832
			c-0.728-1.04-0.44-2.225-0.44-3.33c-0.024-45.56-0.024-91.112-0.024-136.672c0-1.145-0.024-2.281-0.032-3.426
			c20.723-11.975,41.454-23.965,62.185-35.947c18.162-10.51,36.324-21.027,54.485-31.513c17.121-9.894,34.25-19.739,51.372-29.632
			c30.144-17.409,60.28-34.851,90.432-52.244c28.311-16.345,56.646-32.641,84.973-48.978c9.142-5.267,18.267-10.606,27.423-15.896
			c0.705-0.408,1.521-0.648,2.289-0.96c0,13.543,0,27.086,0,40.638c0.016,34.386,0.032,68.789,0.032,103.183
			c0,47.009,0,94.002,0.017,140.995c0,0.945-0.305,1.985,0.464,2.826c-1.009,0.104-1.841,0.625-2.706,1.104
			c-14.008,8.125-28.047,16.225-42.055,24.309c-16.584,9.573-33.169,19.146-49.77,28.703c-9.941,5.731-19.898,11.415-29.84,17.113
			c-0.504-1.152-0.352-2.386-0.352-3.603c-0.008-45.432-0.008-90.848-0.008-136.256c0-0.768,0.04-1.529-0.024-2.289
			C417.338,372.866,416.97,372.417,416.082,373.018z"/>
		<path fill-rule="evenodd" clip-rule="evenodd" fill="#E45B2D" d="M541.669,300.827c0-34.395-0.017-68.797-0.032-103.183
			c0-13.551,0-27.095,0-40.638c4.498,1.897,8.533,4.634,12.743,7.06c26.622,15.328,53.244,30.696,79.851,46.065
			c43.879,25.349,87.742,50.699,131.606,76.032c8.244,4.763,16.489,9.493,24.718,14.248c0.016,33.026,0.031,66.043,0.031,99.069
			c0,14.832-0.031,29.672-0.048,44.512c-0.816-0.384-1.649-0.745-2.449-1.177c-80.987-46.777-161.975-93.53-242.978-140.283
			C544.006,301.892,543.029,300.971,541.669,300.827z"/>
		<path fill-rule="evenodd" clip-rule="evenodd" fill="#EC8D24" d="M417.851,660.291c9.677,5.604,19.338,11.223,29.008,16.793
			c13.223,7.62,26.462,15.289,39.677,22.908c15.4,8.885,30.785,17.785,46.217,26.639c2.945,1.681,5.747,3.682,8.949,4.963
			c-0.016,46.953-0.032,93.891,0.031,140.859c0,2.176-0.592,3.313-2.545,4.418c-39.854,22.908-79.659,45.961-119.496,68.949
			c-0.601,0.336-1.209,0.607-1.817,0.896c-0.16-0.16-0.32-0.354-0.488-0.561c0.008-1.201,0.032-2.434,0.032-3.666
			c0-92.945,0-185.892,0.008-278.854C417.427,662.484,417.138,661.332,417.851,660.291z"/>
		<path fill-rule="evenodd" clip-rule="evenodd" fill="#EB8D24" d="M790.538,443.992c0.017-14.84,0.048-29.68,0.048-44.512
			c0-33.026-0.016-66.043-0.031-99.069c21.259-12.286,42.502-24.581,63.745-36.852c19.274-11.126,38.581-22.228,57.871-33.346
			c0.849-0.488,1.809-0.856,2.193-1.873c1.089,0.432,0.769,1.385,0.769,2.153c0.016,46.705,0.016,93.418,0.032,140.139
			c0,1.305-0.433,2.033-1.537,2.682c-40.502,23.333-80.955,46.705-121.44,70.037C791.69,443.664,791.194,444.072,790.538,443.992z"
			/>
		<path fill-rule="evenodd" clip-rule="evenodd" fill="#EB8D24" d="M541.669,731.594c0-46.81,0-93.635,0-140.459
			c0-1.153-0.032-2.273-0.048-3.426c1.024-0.529,2.049-1.041,3.025-1.602c18.17-10.502,36.308-20.987,54.461-31.505
			c18.475-10.661,36.964-21.355,55.47-31.985c3.746-2.145,7.315-4.626,11.366-6.195c0.448,0.689,0.24,1.457,0.24,2.226
			c0.016,46.345,0,92.689,0.031,139.05c0,1.426-0.304,2.322-1.648,3.106c-40.646,23.404-81.26,46.841-121.889,70.294
			C542.357,731.305,542.005,731.417,541.669,731.594z"/>
		<path fill-rule="evenodd" clip-rule="evenodd" fill="#F7BE3C" d="M665.943,516.422c-4.051,1.569-7.62,4.051-11.366,6.195
			c-18.506,10.63-36.995,21.324-55.47,31.985c-18.153,10.518-36.291,21.003-54.461,31.505c-0.977,0.561-2.001,1.072-3.025,1.602
			c-13.703-7.877-27.406-15.753-41.094-23.629c-26.991-15.576-53.981-31.169-80.972-46.745c-0.64-0.368-1.385-0.624-2.073-0.896
			c0.096-0.192,0.192-0.384,0.296-0.561c9.941-5.698,19.898-11.382,29.84-17.113c16.601-9.557,33.186-19.13,49.77-28.703
			c14.008-8.084,28.047-16.185,42.055-24.309c0.865-0.48,1.697-1,2.706-1.104c9.141,5.243,18.329,10.446,27.454,15.696
			c31.441,18.138,62.85,36.292,94.259,54.445C664.615,515.222,665.623,515.398,665.943,516.422z"/>
		<path fill-rule="evenodd" clip-rule="evenodd" fill="#E45B2D" d="M417.851,660.291c-0.712,1.041-0.424,2.193-0.424,3.346
			c-0.008,92.962-0.008,185.908-0.008,278.854c0,1.232-0.024,2.465-0.032,3.666c-0.592-0.801-0.417-1.729-0.417-2.625
			c-0.008-93.65-0.008-187.349,0.04-281.047C417.01,661.796,416.226,660.483,417.851,660.291z"/>
		<path fill-rule="evenodd" clip-rule="evenodd" fill="#E45B2D" d="M417.779,515.878c-0.104,0.177-0.2,0.368-0.296,0.561
			c-0.84-1.009-0.504-2.193-0.504-3.282c-0.016-45.64-0.008-91.265-0.032-136.873c0-1.112,0.608-2.497-0.864-3.266
			c0.888-0.6,1.256-0.152,1.313,0.712c0.064,0.76,0.024,1.521,0.024,2.289c0,45.409,0,90.825,0.008,136.256
			C417.427,513.492,417.274,514.726,417.779,515.878z"/>
	</g>
</g>
<g id="Layer_5" display="none">
	<g id="Pytorch" display="inline">
		<path fill-rule="evenodd" clip-rule="evenodd" fill="#ED4C2C" d="M478.094,138.77c-33.003,40.369-74.185,73.416-111.382,110.022
			c-34.813,34.248-71.058,67.181-106.552,100.784c-49.747,47.071-80.013,103.283-89.683,169.166
			c-0.362,2.578-1.935,4.98-2.924,7.488c-7.312,7.843-6.605,15.95-0.865,24.251c0.018,4.151,0.018,8.319,0.018,12.488
			c-5.864,6.835-5.952,13.547,0.283,20.188c7.842,56.592,26.008,109.438,63.489,155.327
			c50.295,61.607,116.159,99.265,197.249,113.519c7.039,1.255,14.06,2.773,21.072,4.151c21.689,6.835,43.371,6.835,65.069,0
			c35.044-7.136,70.352-13.177,102.745-28.773c98.93-47.76,158.064-122.615,175.074-226.349c1.007-6.006,2.562-11.87,3.868-17.822
			c5.476-3.974,5.511-7.966,0.3-12.134c0-6.871,0-13.725,0-20.596c5.882-7.012,6.271-13.848-0.794-20.436
			c-7.172-33.807-14.413-67.525-30.893-98.779c-13.9-26.273-30.557-50.771-52.265-71.905c-7.277-7.039-7.171-11.11,0.495-17.849
			c17.91-15.755,35.484-31.952,51.857-49.111c9.715-10.174,15.438-9.3,24.799,0.441c77.857,80.86,115.303,175.983,109.792,284.486
			c-8.266,163.116-127.42,307.528-292.355,358.326c-31.651,9.715-64.027,15.614-97.181,17.822
			c-21.514-5.829-43.044-5.6-64.575-0.142C248.433,940.583,82.613,789.689,62.266,605.29
			C48.472,480.254,88.08,372.131,181.349,282.634c94.867-91.078,191.73-180.312,287.692-270.356
			c3.224,0.115,6.403,0.221,9.591,0.345c0.018,40.81,0.036,81.593,0.071,122.395c-0.548,0.309-1.572,0.662-1.546,0.883
			C477.29,136.889,477.749,137.816,478.094,138.77z"/>
		<path fill-rule="evenodd" clip-rule="evenodd" fill="#ED4C2C" d="M685.093,209.695c-0.406,28.233-25.311,51.514-55.249,51.663
			c-30.893,0.168-55.567-23.579-55.426-53.368c0.123-29.532,25.452-52.556,56.521-52.432
			C655.243,155.655,687.901,181.946,685.093,209.695z"/>
		<path fill-rule="evenodd" clip-rule="evenodd" fill="#EC3E11" d="M513.869,856.155c-21.698,6.835-43.38,6.835-65.069,0
			C470.489,856.155,492.171,856.155,513.869,856.155z"/>
		<path fill-rule="evenodd" clip-rule="evenodd" fill="#EC3E11" d="M444.737,953.336c21.531-5.458,43.062-5.688,64.575,0.142
			C487.781,954.961,466.26,955.243,444.737,953.336z"/>
		<path fill-rule="evenodd" clip-rule="evenodd" fill="#EC3E11" d="M166.688,550.481c-5.74-8.301-6.446-16.408,0.865-24.251
			C167.271,534.303,166.972,542.393,166.688,550.481z"/>
		<path fill-rule="evenodd" clip-rule="evenodd" fill="#EC3E11" d="M795.063,530.046c7.064,6.588,6.676,13.424,0.794,20.436
			C795.592,543.646,795.327,536.882,795.063,530.046z"/>
		<path fill-rule="evenodd" clip-rule="evenodd" fill="#EC3E11" d="M166.989,583.158c-6.235-6.642-6.147-13.354-0.283-20.188
			C166.795,569.717,166.909,576.429,166.989,583.158z"/>
		<path fill-rule="evenodd" clip-rule="evenodd" fill="#EC3E11" d="M478.632,12.622c-3.188-0.124-6.367-0.229-9.591-0.345
			c2.199-3.126,3.975-6.897,8.708-6.782C478.103,5.504,478.341,10.131,478.632,12.622z"/>
		<path fill-rule="evenodd" clip-rule="evenodd" fill="#EC3E11" d="M795.856,571.077c5.211,4.168,5.176,8.16-0.3,12.134
			C795.663,579.131,795.733,575.14,795.856,571.077z"/>
		<path fill-rule="evenodd" clip-rule="evenodd" fill="#EC3E11" d="M478.094,138.77c-0.345-0.953-0.804-1.881-0.937-2.87
			c-0.026-0.221,0.998-0.574,1.546-0.883C479.427,136.412,479.232,137.666,478.094,138.77z"/>
	</g>
</g>
<g id="Layer_6" display="none">
	<g id="JAVA" display="inline">
		<path fill-rule="evenodd" clip-rule="evenodd" fill="#5684A2" d="M129.467,849.845c41.556-35.632,90.304-48.449,143.998-45.544
			c-20.34,7.646-42.844,8.264-62.133,19.351c-3.122,1.813-6.656,2.886-9.706,4.761c-5.049,3.091-11.407,5.791-10.645,13.127
			c0.681,6.43,6.883,7.831,11.757,9.893c20.69,8.717,42.658,12.941,64.647,15.826c95.94,12.633,192.272,11.623,288.614,6.43
			c55.909-2.988,111.716-7.666,166.409-20.546c12.221-2.864,24.235-7.213,35.693-12.262c9.604-4.245,17.6-10.963,16.013-23.493
			c0.639-0.536,1.257-1.133,1.834-1.752c13.457,11.521,13.024,19.866-2.762,30.397c-26.049,17.393-55.95,25.471-85.936,32.024
			c-121.916,26.584-245.358,27.532-369.201,19.99c-45.204-2.741-89.995-8.697-134.756-15.333
			c-19.187-2.844-37.527-7.419-53.828-18.382C129.467,859.51,129.467,854.688,129.467,849.845z"/>
		<path fill-rule="evenodd" clip-rule="evenodd" fill="#5684A2" d="M386.675,947.671c-22.205-7.296-45.729-6.039-68.418-10.49
			c-17.579-3.462-35.178-6.512-54.344-13.271c14.663-4.266,26.513,0.722,38.434,1.938c98.218,9.871,196.467,9.665,294.581-0.31
			c64.173-6.553,128.099-15.662,188.604-39.814c14.858-5.935,28.77-14.198,43.112-21.391c0,1.216,0,2.411,0,3.627
			c-16.466,24.771-40.907,37.98-68.171,47.233c-32.087,10.86-65.327,16.321-98.63,21.886c-27.594,4.637-55.951,3.132-83.153,10.593
			C514.671,947.671,450.673,947.671,386.675,947.671z"/>
		<path fill-rule="evenodd" clip-rule="evenodd" fill="#5684A2" d="M828.644,596.264c-25.121,53.292-71.86,78.166-124.74,95.085
			c-5.791,1.834-11.375,4.121-19.186,1.669c25.513-14.632,49.871-29.099,70.211-49.17c10.778-10.654,20.443-21.989,26.997-35.879
			c9.459-20.113,9.645-39.712-3.628-58.114c-13.519-18.795-32.931-25.142-55.312-23.946c-6.347,0.329-12.57,3.462-19.33,1.092
			c45.791-32.354,104.936-9.747,124.987,47.522C828.644,581.756,828.644,589.01,828.644,596.264z"/>
		<path fill-rule="evenodd" clip-rule="evenodd" fill="#E67006" d="M471.58,512.801c-33.251-30.499-66.409-61.144-91.933-98.846
			c-36.321-53.684-32.849-92.499,11.983-138.99c28.583-29.645,62.288-53.251,93.859-79.372
			c14.858-12.282,29.366-25.101,42.998-38.691c39.773-39.64,58.939-86.646,49.542-144.029
			c18.259,19.289,21.721,43.009,20.134,67.512c-2.699,42.298-24.544,76.085-50.716,107.563
			c-22.504,27.09-49.717,49.13-76.672,71.448c-18.682,15.456-35.601,32.499-48.913,52.941
			c-21.103,32.417-23.73,66.018-7.604,101.288c9.604,20.989,23.369,39.279,36.219,58.197c8.604,12.685,16.774,25.688,25.151,38.526
			C474.279,511.152,472.919,511.977,471.58,512.801z"/>
		<path fill-rule="evenodd" clip-rule="evenodd" fill="#E67006" d="M524.078,541.652c23.782-39.402,22.133-58.361-6.656-94.446
			c-25.11-31.458-43.637-65.307-33.117-107.831c5.698-22.999,18.97-41.515,35.899-57.373
			c40.453-37.888,89.934-59.454,141.494-77.063c1.813-0.628,4.204,0.454,10.181,1.258c-17.723,11.643-32.602,21.339-47.398,31.159
			c-25.142,16.733-49.294,34.714-69.284,57.65c-24.523,28.171-27.079,54.116-7.934,85.801c7.439,12.345,16.012,24.029,24.338,35.838
			c21.845,30.984,20.855,61.515-3.339,90.964c-11.952,14.549-25.884,26.913-42.081,36.62
			C525.604,543.301,524.882,542.436,524.078,541.652z"/>
		<path fill-rule="evenodd" clip-rule="evenodd" fill="#5684A2" d="M345.479,736.026c-2.432,18.712,9.428,21.206,21.628,23.205
			c60.031,9.892,120.011,9.768,180.031-0.371c31.428-5.317,31.469-5.008,77.795,19.64c-7.954,7.027-18.011,8.14-26.872,11.52
			c-8.965,3.441-18.301,5.997-27.656,8.325c-9.934,2.453-19.969,4.616-30.088,6.142c-63.771,9.645-127.202,11.17-189.676-8.635
			c-9.83-3.112-19.217-7.151-27.707-12.963c-17.63-12.117-17.682-25.554,0.154-36.558
			C329.591,742.313,337.051,739.818,345.479,736.026z"/>
		<path fill-rule="evenodd" clip-rule="evenodd" fill="#5684A2" d="M357.36,524.96c-20.948,7.295-40.042,13.766-58.97,20.67
			c-5.605,2.04-10.984,5.008-16.033,8.223c-3.916,2.514-8.779,5.357-7.408,11.21c1.103,4.658,5.708,5.977,9.645,7.357
			c19.608,6.862,40.206,8.182,60.587,8.759c104.514,3.029,208.471-3.298,311.716-20.319c3.421-0.536,6.945-0.495,12.386-0.866
			c-26.626,23.864-58.568,27.491-89.604,32.189c-98.815,14.982-198.125,16.981-297.6,7.461
			c-22.133-2.144-44.462-5.028-64.884-14.715c-14.117-6.718-14.529-13.292-2.659-22.215
			C239.72,543.796,321.925,521.58,357.36,524.96z"/>
		<path fill-rule="evenodd" clip-rule="evenodd" fill="#5684A2" d="M323.439,634.182c-6.348,21.639-2.133,27.265,22.112,30.851
			c83.184,12.344,165.812,6.862,248.017-8.284c8.449-1.546,14.487-1.216,21.35,4.266c7.873,6.306,17.063,10.964,27.1,17.249
			c-43.895,13.931-87.954,21.411-132.509,24.832c-61.371,4.699-122.823,6.266-183.318-8.943c-12.891-3.256-25.554-7.357-36.26-15.56
			c-10.994-8.429-11.231-17.66-1.112-27.243C295.763,644.774,307.458,638.819,323.439,634.182z"/>
		<path fill-rule="evenodd" clip-rule="evenodd" fill="#E67006" d="M526.181,544.229c-1.36,0.247-2.741,0.515-4.122,0.763
			c0.66-1.113,1.34-2.227,2.02-3.339C524.882,542.436,525.604,543.301,526.181,544.229z"/>
		<path fill-rule="evenodd" clip-rule="evenodd" fill="#5684A2" d="M774.115,817.387c-0.763-0.659-1.505-1.34-2.288-2.02
			c1.381,0.104,2.762,0.206,4.122,0.289C775.372,816.254,774.754,816.851,774.115,817.387z"/>
	</g>
</g>
<g id="Layer_7">
	<path id="RASPBERRY_1_" fill="#FF1B4A" d="M810.071,434.431l-6.846-12.036c0.187-85.843-39.589-120.813-86.022-147.461
		c14.065-3.678,28.475-6.648,32.555-24.412c24.241-6.112,29.243-17.396,31.634-29.234c6.298-4.251,27.399-16.089,25.163-36.438
		c11.847-8.152,18.505-18.693,14.987-33.502c12.769-13.87,16.098-25.342,10.739-35.892c15.346-19.061,8.484-28.859,2.029-38.658
		c11.474-20.733,1.283-42.934-30.728-39.229c-12.733-18.692-40.51-14.434-44.761-14.434c-4.796-5.915-11.095-11.104-30.522-8.697
		c-12.6-11.285-26.65-9.252-41.262-3.876c-17.207-13.52-28.696-2.603-41.824,1.469c-20.896-6.658-25.727,2.407-35.866,6.291
		c-22.772-4.806-29.791,5.548-40.731,16.474l-12.753-0.196c-34.433,19.982-51.436,60.697-57.548,81.609
		c-6.095-20.912-23.13-61.627-57.546-81.609L428,34.793c-10.909-10.926-17.942-21.28-40.698-16.474
		c-10.345-3.688-14.971-12.949-35.883-6.291c-8.519-2.587-16.474-8.144-25.727-7.964c-4.797,0.196-10.175,1.869-16.081,6.495
		c-14.629-5.557-28.697-7.409-41.261,3.876c-19.427-2.407-25.914,2.585-30.541,8.697c-4.25,0-32.008-4.259-44.761,14.434
		c-32.008-3.704-41.995,18.497-30.506,39.229c-6.504,9.979-13.349,19.794,2.015,38.658c-5.395,10.55-2.015,22.021,10.72,35.892
		c-3.329,14.81,3.346,25.351,15.006,33.502c-2.236,20.349,18.863,32.188,25.145,36.438c2.408,11.839,7.409,22.953,31.633,29.234
		c4.063,17.566,18.522,20.733,32.572,24.412c-46.451,26.649-86.227,61.618-86.039,147.461l-6.846,12.036
		c-53.279,31.82-101.198,134.495-26.255,217.77c4.796,26.083,13.128,44.761,20.332,65.485
		c10.925,83.647,82.334,122.672,101.027,127.315c27.553,20.689,56.967,40.321,96.572,54.013
		c37.573,38.104,78.271,52.546,118.969,52.546h1.844c40.903,0,81.412-14.441,118.781-52.546
		c39.775-13.691,69.019-33.323,96.589-54.013c18.88-4.644,90.119-43.668,101.011-127.315c7.222-20.725,15.552-39.402,20.364-65.485
		C911.099,568.755,863.18,466.251,810.071,434.431z M768.981,419.612c-2.749,34.604-182.953-120.429-151.885-125.61
		C701.649,280.115,771.781,329.528,768.981,419.612z M689.429,591.903c-45.325,29.225-110.639,10.346-145.789-42.2
		c-35.133-52.544-27.006-118.79,18.336-148.033c45.324-29.209,110.637-10.345,145.786,42.2
		C742.93,496.407,734.769,562.609,689.429,591.903L689.429,591.903z M563.818,58.472c1.503,7.775,3.328,12.581,5.345,14.066
		c10.02-10.729,18.146-21.646,31.102-32.009c0,6.104-3.14,12.582,4.645,17.388c6.829-9.253,16.269-17.575,28.663-24.608
		c-5.908,10.354-1.109,13.512,2.202,17.763c9.439-8.144,18.505-16.278,35.917-22.748c-4.798,5.727-11.473,11.463-4.438,18.121
		c9.8-6.103,19.599-12.215,42.729-16.474c-5.188,5.745-16.114,11.668-9.439,17.404c12.222-4.626,25.915-8.134,40.886-9.995
		c-7.204,5.932-13.128,11.66-7.204,16.286c13.145-4.071,31.273-9.44,48.841-4.814l-11.097,11.284
		c-1.296,1.486,26.084,1.118,44.215,1.486c-6.658,9.252-13.316,17.95-17.226,33.673c1.878,1.852,10.755,0.734,19.239,0
		c-8.672,18.316-23.679,22.755-27.16,30.711c5.343,4.071,12.547,2.953,20.707,0.187c-6.315,12.77-19.237,21.647-29.619,32
		c2.597,1.852,7.222,2.962,17.976,1.665c-9.644,10.183-21.099,19.436-34.79,27.757c2.39,2.774,10.72,2.774,18.488,2.961
		c-12.394,12.018-28.321,18.309-43.292,26.273c7.409,4.994,12.769,3.884,18.506,3.884c-10.551,8.697-28.492,13.127-45.155,18.497
		c3.16,5.01,6.317,6.299,13.146,7.596c-17.585,9.799-42.935,5.361-49.95,10.354c1.656,5.01,6.655,8.143,12.376,10.729
		c-28.474,1.673-106.013-1.101-120.984-59.757c29.055-32.018,82.164-69.378,173.342-115.829
		c-71.034,23.688-135.032,55.516-188.723,98.988C489.629,161.896,533.106,87.894,563.818,58.472z M500.178,270.495
		c44.777-0.555,100.087,32.956,99.9,64.196c-0.152,27.749-38.837,50.156-99.543,49.788c-59.391-0.75-99.354-28.125-99.166-55.14
		C401.369,307.318,449.834,269.215,500.178,270.495L500.178,270.495z M272.601,246.826c6.846-1.297,10.003-2.782,13.128-7.596
		c-16.644-5.173-34.604-9.799-45.137-18.497c5.736,0,11.114,1.289,18.488-3.884c-14.972-7.964-30.899-14.255-43.258-26.273
		c7.75-0.188,16.081,0,18.471-2.961c-13.691-8.322-25.146-17.575-34.757-27.757c10.72,1.297,15.346,0.187,17.908-1.665
		c-10.346-10.354-23.49-19.23-29.568-32c7.938,2.766,15.331,3.688,20.725-0.187c-3.534-7.776-18.505-12.395-27.229-30.711
		c8.519,0.734,17.395,1.852,19.256,0c-3.892-15.723-10.738-24.608-17.207-33.673c18.128-0.196,45.511,0,44.214-1.486l-11.114-11.284
		c17.583-4.626,35.748,0.743,48.84,4.814c5.942-4.626-0.17-10.354-7.203-16.286c15.022,2.04,28.492,5.368,40.902,9.995
		c6.487-5.736-4.268-11.659-9.441-17.404c23.132,4.259,32.914,10.371,42.747,16.474c7.017-6.658,0.358-12.394-4.438-18.121
		c17.396,6.273,26.46,14.604,35.884,22.748c3.158-4.251,8.16-7.409,2.219-17.763c12.395,7.033,21.834,15.355,28.68,24.608
		c7.597-4.806,4.626-11.472,4.626-17.388c12.958,10.363,21.101,21.279,31.088,32.009c2.031-1.485,3.704-6.291,5.36-14.066
		c30.711,29.422,74.191,103.425,11.079,132.839c-53.637-43.472-117.655-75.301-188.705-98.988
		c91.21,46.255,144.337,83.812,173.375,115.829c-14.8,58.844-92.526,61.43-121,59.757c5.736-2.587,10.755-5.906,12.376-10.729
		C315.518,251.999,290.355,256.445,272.601,246.826L272.601,246.826z M383.82,291.416c31.052,5.182-149.134,160.017-151.917,125.619
		C229.121,326.942,299.419,277.341,383.82,291.416z M192.486,637.039c-43.839-34.79-57.905-136.364,23.336-181.901
		C264.816,442.214,232.45,654.589,192.486,637.039z M360.858,818.711c-24.634,14.613-84.741,8.708-127.299-51.622
		c-28.68-50.703-24.958-102.121-4.814-117.279c30.166-18.164,76.804,6.283,112.688,47.355
		C372.707,734.175,386.944,799.456,360.858,818.711z M312.001,597.23c-45.323-29.227-53.467-95.463-18.299-147.999
		c35.149-52.554,100.429-71.418,145.787-42.167c45.325,29.209,53.467,95.454,18.317,148
		C422.453,607.608,357.138,626.456,312.001,597.23z M501.099,921.958c-54.388,2.185-107.668-43.874-106.968-59.749
		c-0.7-23.523,66.271-41.825,109.75-40.698c43.821-1.877,102.873,13.862,103.06,34.928
		C607.847,876.822,553.644,922.879,501.099,921.958z M610.082,690.883c0.342,54.935-48.5,99.524-108.796,99.899
		c-60.295,0.342-109.545-44.044-109.903-98.807v-1.093c-0.375-54.971,48.465-99.525,108.795-99.937
		c60.294-0.374,109.511,44.045,109.904,98.81V690.883z M762.152,769.854c-46.81,64.016-110.28,66.44-133.753,48.687
		c-24.617-22.978-5.941-94.164,27.928-133.224c38.667-43.121,80.115-71.221,108.982-49.233
		C784.721,655.17,796.208,726.936,762.152,769.854L762.152,769.854z M804.506,634.444c-39.776,17.379-72.145-194.825-23.303-181.885
		C862.445,498.252,848.396,599.824,804.506,634.444z"/>
</g>
<g id="Layer_8" display="none">
	<g id="STM32_1_" display="inline">
		<path fill-rule="evenodd" clip-rule="evenodd" fill="#0071BC" d="M22.354,693.684c3.516-9.219,6.598-17.304,9.679-25.416
			c43.746-114.619,87.492-229.219,131.225-343.813c20.109-52.563,40.112-105.125,60.154-157.674
			c0.066-0.152,0.145-0.283,0.185-0.415c2.186-5.353,1.343-4.958,7.229-4.958c233.401,0,466.841,0,700.216,0
			c1.594,0,3.147,0,5.241,0c-0.501,1.837-0.764,3.088-1.212,4.273c-11.641,30.551-23.281,61.089-34.923,91.634
			c-0.382,0.961-0.869,1.883-1.172,2.864c-0.554,1.837-1.778,2.581-3.595,2.542c-1.778-0.026-3.529,0.013-5.281,0.013
			c-187.85,0-375.675,0.02-563.525-0.013c-21.057,0-41.468,3.272-60.76,11.878c-45.577,20.372-75.087,54.953-86.097,103.94
			c-10.746,47.915,0.659,91.153,31.947,128.915c3.371,4.056,7.084,7.875,10.838,11.614c38.136,38.188,76.286,76.325,114.488,114.409
			c5.347,5.346,9.231,11.377,10.891,18.831c4.122,18.489-8.283,37.399-26.838,40.612c-2.726,0.475-5.531,0.764-8.27,0.764
			c-94.959,0-189.918,0-284.838,0C26.384,693.684,24.843,693.684,22.354,693.684z"/>
		<path fill-rule="evenodd" clip-rule="evenodd" fill="#0071BC" d="M556.751,799.955c0.619-1.924,1.001-3.424,1.593-4.873
			c23.783-62.34,47.539-124.654,71.335-186.994c29.3-76.773,58.601-153.514,87.927-230.287c1.818-4.826,1.857-4.846,6.875-4.846
			c42.061,0,84.107,0,126.182,0c1.408,0,2.844,0,4.938,0c-0.764,2.437-1.237,4.234-1.896,5.972
			c-13.497,35.351-27.008,70.683-40.48,106.06c-31.894,83.516-63.775,167.006-95.67,250.521
			c-7.598,19.963-15.209,39.9-22.848,59.863c-1.83,4.768-1.83,4.82-6.913,4.82c-42.061,0-84.108,0-126.169,0
			C560.188,800.191,558.766,800.06,556.751,799.955z"/>
		<path fill-rule="evenodd" clip-rule="evenodd" fill="#0071BC" d="M344.394,799.717c3.766-1.185,7.572-2.238,11.272-3.555
			c46.538-16.566,78.867-48.092,93.497-95.525c16.961-54.966,5.215-104.639-33.58-147.146
			c-15.052-16.514-31.407-31.763-47.236-47.539c-24.099-24.145-48.184-48.283-72.414-72.289
			c-7.835-7.743-12.326-16.658-12.089-27.878c0.448-17.501,15.473-32.717,32.869-32.79c36.899-0.092,73.824-0.04,110.735-0.04
			c56.862,0,113.698,0,170.521,0c1.896,0,3.74,0,6.334,0c-0.75,2.226-1.198,3.72-1.752,5.149
			c-14.827,38.953-29.655,77.879-44.522,116.786c-28.589,74.877-57.151,149.701-85.715,224.525
			c-9.718,25.442-19.423,50.91-29.063,76.378c-1.053,2.634-2.094,4.478-5.531,4.451c-31.065-0.105-62.117-0.053-93.168-0.053
			C344.499,800.008,344.446,799.85,344.394,799.717z"/>
	</g>
</g>
<g id="Layer_9" display="none">
	<g display="inline">
		<g>
			<path fill-rule="evenodd" clip-rule="evenodd" fill="#0071BC" d="M573.338,538.545c4.174,7.33,6.158,13.035,9.92,17.059
				c38.152,40.783,118.137,47.301,163.275,21.191c40.205-23.23,63.297-57.897,58.517-105.275
				c-4.726-46.84-33.11-77.407-76.581-93.404c-52.123-19.173-118.025-2.873-149.826,54.811
				c-30.975,56.195-63.685,111.475-93.459,168.311c-29.762,56.851-75.727,90.276-137.275,104.481
				c-74.169,17.1-146.286,13.215-213.152-25.365c-85.399-49.244-129.311-123.4-121.664-223.17
				c4.712-61.817,34.915-112.115,82.257-151.652c89.271-74.583,223.625-81.582,320.349-17.306c2.094,1.398,4.092,2.948,8.074,5.842
				c-21.88,35.982-43.554,71.648-66.109,108.774c-20.006-18.649-42.465-28.06-67.9-32.276
				c-63.615-10.561-125.577,30.43-139.066,93.06c-8.68,40.364,15.211,88.424,56.037,110.965
				c54.866,30.285,133.141,21.219,169.971-44.863c30.244-54.287,60.405-108.656,92.233-162
				C523.377,276.5,605.18,238.32,710.172,246.47c74.5,5.794,137.012,35.741,183.473,94.258
				c81.775,102.959,62.279,243.08-43.209,322.706c-96.903,73.136-236.782,71.055-330.6-4.382
				c-10.692-8.598-13.572-14.908-5.098-27.364c16.451-24.167,30.973-49.657,46.336-74.568
				C563.692,552.875,566.559,548.797,573.338,538.545z"/>
		</g>
	</g>
</g>
<g id="Layer_10" display="none">
	<path display="inline" fill-rule="evenodd" clip-rule="evenodd" fill="#FF4B50" d="M26.493,464.116c0-2.428,0-4.864,0-7.301
		c6.115-3.934,12.54-7.484,18.29-11.874C135.54,375.87,198.35,285.26,246.375,183.232c6.443-13.699,12.796-27.664,21.192-40.167
		c16.939-25.254,43.023-34.728,71.682-27.91c23.108,5.495,42.749,27.636,43.479,56.888c0.821,32.966,0.857,66.972-6.061,98.942
		c-19.586,90.492-43.753,179.988-64.343,270.279c-9.729,42.641-14.402,86.229-6.371,130.111c2.757,15.077,8.488,28.95,24.004,33.823
		c16.1,5.075,28.694-4.398,38.04-15.99c21.32-26.485,42.604-53.136,61.971-81.026c63.248-91.177,109.192-192.009,160.138-290.012
		c12.047-23.146,22.871-47.104,36.817-69.035c25.372-39.856,78.563-39.382,101.617,1.917c10.587,18.975,17.358,41.874,19.202,63.567
		c3.87,45.936,2.812,92.263,4.801,138.38c1.552,35.786,3.724,71.6,7.356,107.212c4.18,41.089,30.52,54.268,66.644,34.663
		c4.782-2.609,9.437-5.64,13.635-9.071c18.856-15.352,37.785-30.63,56.203-46.474c12.941-11.135,19.458-10.368,27.307,5.403
		c3.413,6.899,5.641,14.401,8.396,21.63c0,4.874,0,9.729,0,14.621c-1.223,2.045-3.23,3.961-3.577,6.151
		c-9.948,62.117-48.391,101.398-104.501,122.608c-81.739,30.886-171.072,14.293-194.984-85.444
		c-9.766-40.778-9.638-83.947-13.58-126.059c-0.932-9.848-0.146-19.859-0.146-29.808c-6.845,5.02-9.692,10.696-12.559,16.346
		c-30.538,59.954-59.287,120.921-92.125,179.587c-30.977,55.345-69.071,105.87-120.638,144.622
		c-39.08,29.353-82.998,44.083-131.461,37.019c-59.744-8.726-92.819-49.029-109.831-103.789
		c-19.13-61.569-12.413-123.394,1.223-184.999c4.819-21.831,9.127-43.809,14.42-69.327c-14.384,8.104-24.131,14.146-34.335,19.239
		c-50.124,25.008-83.126,11.975-101.653-39.875C27.936,466.134,27.114,465.157,26.493,464.116z"/>
</g>
</svg>
